<svg width="67" height="67" viewBox="0 0 67 67" fill="none" xmlns="http://www.w3.org/2000/svg">
<rect width="67" height="67" rx="20" fill="#0A69F9"/>
<path d="M35.8145 49.1333H55.0688V45.6084L35.8145 49.1333Z" fill="white"/>
<path d="M29.6553 49.1335C31.6405 46.0746 47.3549 44.0074 51.9353 42.705L52.8323 37.2803C51.9832 37.7224 31.6166 43.3144 29.6553 49.1335Z" fill="white"/>
<path d="M23.4971 49.1336C27.4795 43.0158 39.6301 38.8696 48.8028 36.2767L50.6087 28.9521C48.8985 29.8364 27.4317 37.5075 23.509 49.1336H23.4971Z" fill="white"/>
<path d="M17.3257 49.133C23.2933 39.9564 31.904 33.743 45.6571 29.8477L48.3599 20.6113C45.8006 21.9376 23.2216 31.6878 17.3257 49.133Z" fill="white"/>
<path d="M46.1234 12.2832C42.703 14.0636 19.0237 25.8809 11.1665 49.1332C19.1314 36.8977 24.1901 28.6052 42.5236 23.4195L46.1234 12.2832Z" fill="white"/>
</svg>
