<svg width="52" height="13" viewBox="0 0 52 13" fill="none" xmlns="http://www.w3.org/2000/svg">
<path d="M6.98637 4.20776C6.67288 4.20673 6.3626 4.27067 6.07516 4.39553C5.78773 4.52039 5.52941 4.70346 5.31656 4.93314C5.10372 5.16282 4.94099 5.4341 4.83867 5.72981C4.73636 6.02552 4.6967 6.33921 4.7222 6.65101C4.69388 6.90805 4.72155 7.16817 4.80333 7.41356C4.88511 7.65894 5.01907 7.88378 5.19603 8.0727C5.37299 8.26161 5.58877 8.41012 5.8286 8.50807C6.06842 8.60602 6.32663 8.65109 6.58554 8.6402C6.90265 8.64731 7.21772 8.58785 7.51033 8.46568C7.80294 8.34351 8.06657 8.16134 8.28412 7.93099C8.50167 7.70065 8.66829 7.42725 8.77319 7.12853C8.87809 6.82981 8.91892 6.51243 8.89304 6.19695C8.92021 5.93648 8.89028 5.67322 8.80531 5.42545C8.72034 5.17767 8.58237 4.95131 8.40098 4.76206C8.21958 4.57281 7.9991 4.42521 7.75483 4.32949C7.51055 4.23378 7.24834 4.19224 6.98637 4.20776Z" fill="white"/>
<path d="M15.5896 4.20859C15.2662 4.2129 14.9473 4.28435 14.6532 4.41839C14.359 4.55243 14.0961 4.74613 13.881 4.98715C13.666 5.22817 13.5036 5.51123 13.4043 5.81831C13.3049 6.12539 13.2706 6.44975 13.3038 6.77076C13.2741 7.02962 13.3006 7.29182 13.3815 7.53955C13.4624 7.78728 13.5957 8.01475 13.7724 8.20652C13.9492 8.39828 14.1652 8.54986 14.4059 8.65094C14.6465 8.75203 14.9061 8.80027 15.1671 8.79238C15.4882 8.79365 15.8061 8.72802 16.1004 8.59967C16.3947 8.47132 16.6589 8.28309 16.8761 8.04701C17.0932 7.81093 17.2587 7.53221 17.3617 7.22867C17.4648 6.92514 17.5032 6.60348 17.4746 6.28427C17.5074 6.02039 17.4828 5.75255 17.4024 5.49903C17.322 5.24552 17.1878 5.01228 17.0089 4.81525C16.8299 4.61822 16.6105 4.46203 16.3656 4.35733C16.1206 4.25264 15.856 4.2019 15.5896 4.20859Z" fill="white"/>
<path d="M46.5075 10.0892H44.85L43.3333 2.91081H45.1967L46.0633 7.36486L50.0175 0.5H29.4342L29.1308 2.07838H27.3975L27.6683 0.5H2.28583L0 12.5H4.01917C3.57148 12.2637 3.19022 11.9192 2.91016 11.4981C2.6301 11.077 2.46016 10.5927 2.41583 10.0892H4.39833C4.49035 10.4373 4.7004 10.7427 4.99274 10.9537C5.28507 11.1646 5.64161 11.2679 6.00167 11.2459C6.61831 11.2733 7.22475 11.0818 7.71333 10.7054C8.02351 10.4118 8.24495 10.0372 8.3525 9.62432C7.80773 10.0409 7.13099 10.2481 6.44583 10.2081C5.59426 10.22 4.76708 9.92433 4.11667 9.37568C3.74967 9.04968 3.46151 8.64489 3.27387 8.19174C3.08623 7.7386 3.00399 7.24889 3.03333 6.75946C3.0135 6.19909 3.11227 5.64083 3.3232 5.12112C3.53413 4.60141 3.85249 4.1319 4.2575 3.74324C5.00881 3.03442 6.00786 2.64649 7.04167 2.66216C7.50579 2.6125 7.97481 2.68637 8.40104 2.87626C8.82727 3.06614 9.19552 3.36528 9.46833 3.74324L9.64167 2.86757H11.2233L9.945 9.51622C9.81158 10.4114 9.38943 11.2387 8.7425 11.873C8.4217 12.1447 8.05483 12.3571 7.65917 12.5H49.5842L52 0.5L46.5075 10.0892ZM16.835 10.0892L16.9108 9.66757C16.3681 10.126 15.6711 10.3617 14.9608 10.327C14.1398 10.3357 13.3433 10.0477 12.7183 9.51622C12.3481 9.17882 12.0585 8.76273 11.871 8.29867C11.6835 7.83462 11.6028 7.33446 11.635 6.83513C11.6162 6.26549 11.713 5.69793 11.9197 5.16658C12.1263 4.63524 12.4385 4.15109 12.8375 3.74324C13.5807 3.04226 14.5666 2.65493 15.5892 2.66216C16.0583 2.60881 16.5332 2.6808 16.9653 2.87075C17.3974 3.0607 17.7711 3.3618 18.0483 3.74324L18.2217 2.86757H19.825L18.4167 10.0892H16.835ZM25.155 8.56486L24.9167 10.0892H19.37L19.6733 8.56486L23.6167 4.43514H20.7133L21.0167 2.91081H26L25.6967 4.43514L21.8075 8.56486H25.155ZM25.7942 10.0892L27.2025 2.91081H28.925L27.5275 10.0892H25.7942ZM34.84 4.43514L30.9075 8.56486H34.255L33.9625 10.0892H28.47L28.7733 8.56486L32.7058 4.43514H29.8133L30.1167 2.91081H35.1433L34.84 4.43514ZM41.6542 9.22432C41.2734 9.58836 40.8228 9.87178 40.3294 10.0576C39.8361 10.2434 39.3102 10.3277 38.7833 10.3054C38.3112 10.3331 37.8383 10.265 37.3933 10.1052C36.9483 9.94538 36.5404 9.69722 36.1942 9.37568C35.869 9.04418 35.6157 8.64952 35.4498 8.21619C35.2839 7.78287 35.2091 7.32015 35.23 6.85676C35.2167 6.28267 35.3181 5.71168 35.5282 5.17711C35.7384 4.64255 36.0532 4.15511 36.4542 3.74324C36.8406 3.37776 37.2968 3.09367 37.7956 2.90793C38.2944 2.7222 38.8256 2.63861 39.3575 2.66216C39.8275 2.63177 40.2987 2.69973 40.7408 2.8617C41.183 3.02367 41.5863 3.27607 41.925 3.6027C42.2446 3.93093 42.494 4.32064 42.6579 4.74811C42.8218 5.17558 42.8968 5.63187 42.8783 6.08919C42.8979 7.25397 42.4583 8.37983 41.6542 9.22432Z" fill="white"/>
<path d="M39.26 4.20785C38.9486 4.20088 38.6393 4.26101 38.3533 4.38414C38.0672 4.50728 37.8112 4.69051 37.6025 4.92136C37.1666 5.43688 36.9388 6.09593 36.9634 6.77001C36.9419 7.27593 37.0991 7.7733 37.4075 8.17541C37.5811 8.38522 37.8025 8.55061 38.0531 8.65779C38.3037 8.76498 38.5764 8.81087 38.8484 8.79163C39.1606 8.79724 39.4704 8.73542 39.7565 8.6104C40.0426 8.48538 40.2982 8.30012 40.5059 8.06731C40.9536 7.5616 41.1901 6.90388 41.1667 6.22947C41.182 5.7209 41.017 5.22324 40.7009 4.82406C40.5255 4.61628 40.3039 4.45232 40.0537 4.34532C39.8035 4.23832 39.5317 4.19124 39.26 4.20785Z" fill="white"/>
</svg>
