<svg width="607" height="91" viewBox="0 0 607 91" fill="none" xmlns="http://www.w3.org/2000/svg">
<g clip-path="url(#clip0_26_425)">
<path d="M159.124 73.7086C159.124 70.3153 160.098 67.3646 161.988 64.827C163.908 62.2894 166.566 60.3124 169.962 58.896C173.358 57.4797 177.316 56.742 181.834 56.742C184.049 56.742 186.323 56.9191 188.597 57.2436C190.871 57.5682 192.88 58.1289 194.563 58.8665V55.9453C194.563 52.6995 193.589 50.1914 191.639 48.421C189.69 46.6506 186.766 45.7359 182.868 45.7359C179.915 45.7359 177.109 46.2375 174.481 47.2407C171.852 48.244 169.106 49.6898 166.211 51.5783L161.988 42.8147C165.414 40.4541 168.958 38.7427 172.65 37.6214C176.312 36.5001 180.181 35.969 184.197 35.969C191.728 35.969 197.605 37.7984 201.828 41.4868C206.022 45.1752 208.148 50.4865 208.148 57.4502V74.0627C208.148 75.4495 208.385 76.4528 208.916 77.0429C209.418 77.6331 210.245 78.0167 211.397 78.1347V89.1408C210.186 89.3474 209.093 89.5244 208.119 89.6425C207.144 89.7605 206.317 89.8195 205.638 89.7605C202.95 89.7605 200.913 89.1704 199.525 87.9901C198.137 86.8098 197.31 85.3639 197.044 83.5935L196.749 80.8788C194.386 83.8296 191.492 86.1311 188.066 87.7245C184.64 89.3474 181.126 90.1441 177.582 90.1441C174.038 90.1441 170.937 89.4064 168.131 87.9606C165.325 86.5147 163.14 84.5082 161.575 82.0296C160.01 79.5215 159.212 76.7478 159.212 73.7086H159.124ZM192.023 76.2462C192.762 75.5971 193.382 74.8299 193.854 73.9742C194.327 73.1185 194.563 72.4103 194.563 71.8202V66.5974C192.939 65.9482 191.196 65.4466 189.306 65.063C187.416 64.7089 185.644 64.5319 183.961 64.5319C180.446 64.5319 177.582 65.2696 175.337 66.7449C173.093 68.2203 171.97 70.1678 171.97 72.5873C171.97 73.8857 172.354 75.1545 173.093 76.3643C173.831 77.574 174.894 78.5478 176.282 79.256C177.67 79.9641 179.354 80.3477 181.391 80.3477C183.429 80.3477 185.408 79.9641 187.357 79.1674C189.306 78.3707 190.901 77.397 192.112 76.2167L192.023 76.2462Z" fill="#1D293A"/>
<path d="M252.3 47.9784C248.136 48.0374 244.415 48.8341 241.196 50.339C237.976 51.8438 235.614 54.0864 234.137 57.0371V89.1114H220.7V36.7657H233.133V47.5653C235.023 43.9359 237.415 41.0737 240.339 38.9787C243.263 36.8837 246.334 35.7625 249.583 35.5559C250.262 35.6149 250.794 35.6444 251.207 35.6149C251.621 35.5854 251.975 35.6149 252.33 35.7625V47.9784H252.3Z" fill="#1D293A"/>
<path d="M259.771 35.4676V22.1599H273.209V35.4676H259.771ZM259.771 89.1411V47.3885L273.209 36.3233V89.1411H259.771Z" fill="#1D293A"/>
<path d="M281.892 73.7086C281.892 70.3153 282.867 67.3646 284.786 64.827C286.706 62.2894 289.364 60.3124 292.76 58.896C296.157 57.4797 300.114 56.742 304.633 56.742C306.847 56.742 309.122 56.9191 311.396 57.2436C313.67 57.5682 315.678 58.1289 317.361 58.8665V55.9453C317.361 52.6995 316.387 50.1914 314.437 48.421C312.488 46.6506 309.565 45.7359 305.666 45.7359C302.713 45.7359 299.907 46.2375 297.279 47.2407C294.65 48.244 291.874 49.6898 289.01 51.5783L284.757 42.8147C288.183 40.4541 291.727 38.7427 295.418 37.6214C299.08 36.5001 302.949 35.969 306.966 35.969C314.497 35.969 320.374 37.7984 324.567 41.4868C328.761 45.1752 330.887 50.4865 330.887 57.4502V74.0627C330.887 75.4495 331.153 76.4528 331.655 77.0429C332.157 77.6331 332.984 78.0167 334.136 78.1347V89.1408C332.925 89.3474 331.832 89.5244 330.858 89.6425C329.883 89.79 329.056 89.8195 328.377 89.7605C325.69 89.7605 323.652 89.1704 322.264 87.9901C320.876 86.8098 320.049 85.3639 319.783 83.5935L319.488 80.8788C317.125 83.8296 314.231 86.1311 310.805 87.7245C307.379 89.3474 303.865 90.1441 300.291 90.1441C296.718 90.1441 293.646 89.4064 290.87 87.9606C288.064 86.5147 285.879 84.5082 284.314 82.0296C282.749 79.5215 281.951 76.7478 281.951 73.7086H281.892ZM314.792 76.2462C315.53 75.5971 316.15 74.8299 316.623 73.9742C317.095 73.1185 317.332 72.4103 317.332 71.8202V66.5974C315.707 65.9482 313.965 65.4466 312.075 65.063C310.185 64.7089 308.413 64.5319 306.729 64.5319C303.215 64.5319 300.35 65.2696 298.106 66.7449C295.861 68.2203 294.739 70.1678 294.739 72.5873C294.739 73.8857 295.123 75.1545 295.861 76.3643C296.6 77.574 297.663 78.5478 299.051 79.256C300.439 79.9641 302.122 80.3477 304.16 80.3477C306.198 80.3477 308.176 79.9641 310.126 79.1674C312.075 78.3707 313.67 77.397 314.88 76.2167L314.792 76.2462Z" fill="#1D293A"/>
<path d="M355.783 89.1411L336.292 36.7954H350.231L363.757 76.9546L377.077 36.7954H389.894L370.402 89.1411H355.754H355.783Z" fill="#1D293A"/>
<path d="M419.782 90.1442C415.529 90.1442 411.719 89.4361 408.264 87.9902C404.838 86.5739 401.914 84.5969 399.493 82.1183C397.071 79.6397 395.21 76.7775 393.94 73.5907C392.67 70.404 392.021 66.9811 392.021 63.3223C392.021 58.3946 393.143 53.8505 395.417 49.7195C397.662 45.559 400.881 42.2247 405.015 39.7461C409.15 37.2675 414.111 35.9987 419.9 35.9987C425.688 35.9987 430.532 37.238 434.637 39.7461C438.742 42.2542 441.902 45.5295 444.117 49.5719C446.332 53.6439 447.454 58.07 447.454 62.8501C447.454 63.7059 447.425 64.5321 447.366 65.2992C447.306 66.0664 447.218 66.7156 447.159 67.2467H406.374C406.581 70.0204 407.319 72.3514 408.648 74.2989C409.947 76.2464 411.631 77.7217 413.698 78.784C415.765 79.8463 417.921 80.3479 420.225 80.3479C422.971 80.3479 425.57 79.6987 427.962 78.3709C430.355 77.0726 431.979 75.3022 432.865 73.0596L444.383 76.2759C443.172 78.961 441.4 81.3511 439.037 83.4461C436.675 85.5411 433.899 87.164 430.65 88.3443C427.431 89.5246 423.828 90.1147 419.841 90.1147L419.782 90.1442ZM405.96 58.7782H433.633C433.367 56.152 432.599 53.88 431.359 51.9325C430.118 49.985 428.464 48.4802 426.456 47.3884C424.448 46.2966 422.174 45.7655 419.693 45.7655C417.212 45.7655 415.056 46.2966 413.078 47.3884C411.099 48.4802 409.475 49.985 408.234 51.9325C406.994 53.88 406.226 56.152 405.96 58.7782Z" fill="#1D293A"/>
<path d="M504.896 89.1411H491.37V59.929C491.37 55.739 490.631 52.6997 489.184 50.7818C487.737 48.8638 485.67 47.8901 482.982 47.8901C481.181 47.8901 479.32 48.3622 477.489 49.2769C475.629 50.1916 474.004 51.4604 472.557 53.0538C471.11 54.6767 469.988 56.5062 469.19 58.6307V89.1411H455.753V36.7659H467.98V46.5328C469.338 44.2607 471.051 42.3723 473.118 40.8379C475.215 39.3035 477.607 38.1232 480.295 37.238C482.982 36.3823 485.877 35.9397 488.978 35.9397C492.285 35.9397 494.973 36.5298 497.099 37.6806C499.225 38.8314 500.85 40.4248 501.943 42.4313C503.065 44.4378 503.833 46.6508 504.276 49.0704C504.719 51.49 504.925 53.9391 504.925 56.3881V89.1116L504.896 89.1411Z" fill="#1D293A"/>
<path d="M548.103 86.5149C546.892 87.046 545.504 87.6066 543.909 88.1673C542.314 88.7279 540.601 89.2 538.77 89.5836C536.91 89.9672 535.049 90.1442 533.159 90.1442C530.59 90.1442 528.286 89.7016 526.189 88.8459C524.092 87.9902 522.438 86.6034 521.198 84.6854C519.958 82.797 519.338 80.3184 519.338 77.2496V47.0638H512.486V36.7658L532.982 19.6222V36.7658H544.086V47.0638H532.982V72.6465C533.041 74.4464 533.543 75.7448 534.488 76.571C535.433 77.3972 536.644 77.8103 538.12 77.8103C539.479 77.8103 540.808 77.5447 542.167 77.0431C543.525 76.5415 544.618 76.0988 545.504 75.6857L548.132 86.4854L548.103 86.5149Z" fill="#1D293A"/>
<path d="M578.876 90.1443C574.564 90.1443 570.725 89.4066 567.328 87.9607C563.932 86.5149 561.008 84.5084 558.587 81.9708C556.165 79.4332 554.334 76.571 553.094 73.3547C551.853 70.1384 551.233 66.7156 551.233 63.1453C551.233 59.5749 551.853 55.916 553.094 52.6702C554.334 49.4244 556.165 46.5327 558.557 44.0541C560.949 41.5755 563.873 39.5986 567.299 38.1822C570.725 36.7659 574.564 36.0282 578.817 36.0282C583.07 36.0282 587.086 36.7364 590.482 38.1822C593.879 39.5986 596.802 41.5755 599.224 44.0541C601.646 46.5622 603.506 49.4244 604.776 52.6702C606.046 55.916 606.696 59.4274 606.696 63.1453C606.696 66.8631 606.046 70.1384 604.776 73.3547C603.506 76.571 601.646 79.4627 599.224 81.9708C596.802 84.5084 593.879 86.4854 590.482 87.9607C587.086 89.4066 583.217 90.1443 578.935 90.1443H578.876ZM565.054 63.1157C565.054 66.096 565.645 68.7516 566.856 71.1417C568.067 73.5023 569.75 75.3612 571.847 76.689C573.973 78.0168 576.306 78.666 578.876 78.666C581.445 78.666 583.749 77.9873 585.846 76.63C587.942 75.2727 589.596 73.4432 590.837 71.0827C592.077 68.7516 592.697 66.0665 592.697 63.0272C592.697 59.988 592.077 57.3914 590.837 55.0603C589.596 52.7292 587.913 50.8703 585.846 49.513C583.778 48.1556 581.416 47.477 578.787 47.477C576.159 47.477 573.914 48.1556 571.817 49.513C569.721 50.8703 568.067 52.6997 566.856 55.0603C565.645 57.3914 565.054 60.0765 565.054 63.1157Z" fill="#1D293A"/>
<path d="M60.8672 91H108.415V82.2954L60.8672 91Z" fill="#0A69F9"/>
<path d="M45.6582 91.0001C50.5607 83.4463 89.367 78.3415 100.678 75.1252L102.893 61.729C100.796 62.8208 50.5016 76.6301 45.6582 91.0001Z" fill="#0A69F9"/>
<path d="M30.4485 90.9999C40.283 75.8923 70.2885 65.6533 92.9403 59.2502L97.3998 41.1624C93.1766 43.3459 40.1648 62.2895 30.478 90.9999H30.4485Z" fill="#0A69F9"/>
<path d="M15.2097 90.9999C29.9467 68.3385 51.2104 52.9947 85.1734 43.3754L91.8478 20.5664C85.5278 23.8417 29.7695 47.9195 15.2097 90.9999Z" fill="#0A69F9"/>
<path d="M86.3249 0C77.8785 4.39656 19.4032 33.5791 0 91C19.669 60.7847 32.1614 40.3067 77.4355 27.5006L86.3249 0Z" fill="#0A69F9"/>
</g>
<defs>
<clipPath id="clip0_26_425">
<rect width="606.667" height="91" fill="white"/>
</clipPath>
</defs>
</svg>
