<svg width="164" height="164" viewBox="0 0 164 164" fill="none" xmlns="http://www.w3.org/2000/svg">
<g opacity="0.5">
<path d="M79.0687 100.798C78.0437 100.798 76.9982 100.491 76.0962 99.835C73.8002 98.195 73.2672 94.997 74.9072 92.6805L78.8841 87.125H75.1737C73.2467 87.125 71.5042 86.059 70.6227 84.337C69.7412 82.6355 69.8847 80.5855 71.0122 79.007L80.7702 65.3335C82.4102 63.0375 85.6082 62.5045 87.9247 64.1445C90.2206 65.7845 90.7537 68.9825 89.1137 71.299L85.1162 76.875H88.8266C90.7536 76.875 92.4962 77.941 93.3777 79.663C94.2592 81.3645 94.1157 83.4145 92.9882 84.993L83.2302 98.6665C82.2462 100.04 80.6677 100.798 79.0687 100.798Z" fill="#0A69F9"/>
<path d="M82.0002 141.798C68.7162 141.798 59.1017 141.798 51.3322 140.753C42.4147 139.564 36.3672 136.94 31.7137 132.286C27.0602 127.633 24.4567 121.585 23.2472 112.668C22.2017 104.878 22.2017 95.284 22.2017 82C22.2017 68.716 22.2017 59.1015 23.2472 51.332C24.4362 42.4145 27.0602 36.367 31.7137 31.7135C36.3672 27.06 42.4147 24.4565 51.3322 23.247C59.1222 22.2015 68.7162 22.2015 82.0002 22.2015C95.2842 22.2015 104.899 22.2015 112.668 23.247C121.586 24.436 127.633 27.06 132.287 31.7135C136.94 36.367 139.544 42.4145 140.753 51.332C141.799 59.122 141.799 68.716 141.799 82C141.799 95.284 141.799 104.898 140.753 112.668C139.564 121.585 136.94 127.633 132.287 132.286C127.633 136.94 121.586 139.543 112.668 140.753C104.899 141.798 95.2842 141.798 82.0002 141.798ZM82.0002 32.4515C57.6667 32.4515 45.4692 32.4515 38.9707 38.95C32.4722 45.4485 32.4722 57.6665 32.4722 81.9795C32.4722 106.313 32.4722 118.51 38.9707 125.009C45.4692 131.507 57.6872 131.507 82.0002 131.507C106.334 131.507 118.531 131.507 125.03 125.009C131.528 118.51 131.528 106.292 131.528 81.9795C131.528 57.646 131.528 45.4485 125.03 38.95C118.531 32.4515 106.334 32.4515 82.0002 32.4515Z" fill="#0A69F9"/>
<path d="M27.3263 87.125H13.6733C10.8443 87.125 8.54834 84.829 8.54834 82C8.54834 79.171 10.8443 76.875 13.6733 76.875H27.3468C30.1758 76.875 32.4718 79.171 32.4718 82C32.4513 84.829 30.1553 87.125 27.3263 87.125Z" fill="#0A69F9"/>
<path d="M150.326 87.125H136.653C133.824 87.125 131.528 84.829 131.528 82C131.528 79.171 133.824 76.875 136.653 76.875H150.326C153.155 76.875 155.451 79.171 155.451 82C155.451 84.829 153.155 87.125 150.326 87.125Z" fill="#0A69F9"/>
<path d="M27.3263 66.625H13.6733C10.8443 66.625 8.54834 64.329 8.54834 61.5C8.54834 58.671 10.8443 56.375 13.6733 56.375H27.3468C30.1758 56.375 32.4718 58.671 32.4718 61.5C32.4718 64.329 30.1553 66.625 27.3263 66.625Z" fill="#0A69F9"/>
<path d="M150.326 66.625H136.653C133.824 66.625 131.528 64.329 131.528 61.5C131.528 58.671 133.824 56.375 136.653 56.375H150.326C153.155 56.375 155.451 58.671 155.451 61.5C155.451 64.329 153.155 66.625 150.326 66.625Z" fill="#0A69F9"/>
<path d="M27.3263 107.625H13.6733C10.8443 107.625 8.54834 105.329 8.54834 102.5C8.54834 99.671 10.8443 97.375 13.6733 97.375H27.3468C30.1758 97.375 32.4718 99.671 32.4718 102.5C32.4513 105.329 30.1553 107.625 27.3263 107.625Z" fill="#0A69F9"/>
<path d="M150.326 107.625H136.653C133.824 107.625 131.528 105.329 131.528 102.5C131.528 99.671 133.824 97.375 136.653 97.375H150.326C153.155 97.375 155.451 99.671 155.451 102.5C155.451 105.329 153.155 107.625 150.326 107.625Z" fill="#0A69F9"/>
<path d="M82 155.452C79.171 155.452 76.875 153.156 76.875 150.327V136.653C76.875 133.824 79.171 131.528 82 131.528C84.829 131.528 87.125 133.824 87.125 136.653V150.327C87.125 153.156 84.829 155.452 82 155.452Z" fill="#0A69F9"/>
<path d="M82 32.4515C79.171 32.4515 76.875 30.1555 76.875 27.3265V13.6735C76.875 10.8445 79.171 8.54852 82 8.54852C84.829 8.54852 87.125 10.8445 87.125 13.6735V27.347C87.125 30.1555 84.829 32.4515 82 32.4515Z" fill="#0A69F9"/>
<path d="M61.5 155.452C58.671 155.452 56.375 153.156 56.375 150.327V136.653C56.375 133.824 58.671 131.528 61.5 131.528C64.329 131.528 66.625 133.824 66.625 136.653V150.327C66.625 153.156 64.329 155.452 61.5 155.452Z" fill="#0A69F9"/>
<path d="M61.5 32.4515C58.671 32.4515 56.375 30.1555 56.375 27.3265V13.6735C56.375 10.8445 58.671 8.54852 61.5 8.54852C64.329 8.54852 66.625 10.8445 66.625 13.6735V27.347C66.625 30.1555 64.329 32.4515 61.5 32.4515Z" fill="#0A69F9"/>
<path d="M102.5 155.452C99.671 155.452 97.375 153.156 97.375 150.327V136.653C97.375 133.824 99.671 131.528 102.5 131.528C105.329 131.528 107.625 133.824 107.625 136.653V150.327C107.625 153.156 105.329 155.452 102.5 155.452Z" fill="#0A69F9"/>
<path d="M102.5 32.4515C99.671 32.4515 97.375 30.1555 97.375 27.3265V13.6735C97.375 10.8445 99.671 8.54852 102.5 8.54852C105.329 8.54852 107.625 10.8445 107.625 13.6735V27.347C107.625 30.1555 105.329 32.4515 102.5 32.4515Z" fill="#0A69F9"/>
<path d="M95.6737 121.298H68.3267C63.2222 121.298 59.5322 121.298 56.3957 120.868C53.8537 120.519 50.1432 119.74 47.2117 116.788C44.2597 113.836 43.4602 110.126 43.1322 107.604C42.7017 104.468 42.7017 100.778 42.7017 95.6735V68.3265C42.7017 63.222 42.7017 59.532 43.1322 56.3955C43.4807 53.8535 44.2597 50.143 47.2117 47.2115C50.1637 44.2595 53.8742 43.46 56.3957 43.132C59.5322 42.7015 63.2222 42.7015 68.3267 42.7015H95.6532C100.758 42.7015 104.448 42.7015 107.584 43.132C110.126 43.4805 113.837 44.2595 116.768 47.2115C119.72 50.1635 120.52 53.874 120.848 56.3955C121.278 59.532 121.278 63.222 121.278 68.3265C121.278 71.1555 118.982 73.4515 116.153 73.4515C113.324 73.4515 111.028 71.1555 111.028 68.3265C111.028 60.6185 111.028 55.9445 109.532 54.448C108.035 52.9515 103.382 52.9515 95.6532 52.9515H68.3267C60.6187 52.9515 55.9447 52.9515 54.4482 54.448C52.9517 55.9445 52.9517 60.598 52.9517 68.3265V95.653C52.9517 103.361 52.9517 108.035 54.4482 109.531C55.9447 111.028 60.5982 111.028 68.3267 111.028H95.6532C103.361 111.028 108.035 111.028 109.532 109.531C111.028 108.035 111.028 103.381 111.028 95.653C111.028 92.824 113.324 90.528 116.153 90.528C118.982 90.528 121.278 92.824 121.278 95.653C121.278 100.757 121.278 104.447 120.848 107.584C120.499 110.126 119.72 113.836 116.768 116.768C113.816 119.72 110.106 120.519 107.584 120.847C104.468 121.298 100.778 121.298 95.6737 121.298Z" fill="#0A69F9"/>
</g>
</svg>
