<svg width="127" height="127" viewBox="0 0 127 127" fill="none" xmlns="http://www.w3.org/2000/svg">
<path opacity="0.5" fill-rule="evenodd" clip-rule="evenodd" d="M11.9465 0H115.032C118.318 0 121.305 1.34347 123.475 3.51368C125.645 5.68389 126.988 8.67052 126.988 11.9568V115.042C126.988 118.328 125.645 121.315 123.475 123.485C121.315 125.645 118.318 126.999 115.032 126.999H11.9465C8.66018 126.999 5.67356 125.655 3.50334 123.485C1.34347 121.315 0 118.328 0 115.042V11.9465C0 8.66018 1.34347 5.67356 3.51368 3.51368C5.67356 1.34347 8.66018 0 11.9465 0ZM59.1435 74.9033C57.5726 74.4073 56.1362 73.6219 54.8134 72.5264C53.4079 71.3587 52.1471 69.8705 51.031 68.0207C50.5143 68.0517 50.0286 68.062 49.5532 68.062C48.7264 68.0723 47.8687 68.031 46.9696 67.969C43.4353 67.7106 40.769 66.7392 38.1131 65.7781C36.3872 65.1477 34.6614 64.5277 32.7909 64.1453C32.1191 64.0109 31.5198 64.0006 30.9927 64.0626C30.0936 64.197 29.3909 64.6413 28.8638 65.2924C28.2644 66.0158 27.8614 67.0079 27.6444 68.0827C27.4067 69.2711 27.386 70.5732 27.572 71.7927C27.7374 72.8778 28.0474 73.9836 28.4401 75.0584C28.8432 76.1745 29.3392 77.2492 29.8663 78.2517C30.3416 79.1818 30.879 80.0602 31.4681 80.8973C32.0571 81.7447 32.7082 82.5611 33.3903 83.3362C35.6948 85.9611 38.0821 87.7386 40.4383 88.7204C42.5878 89.6194 44.7271 89.8365 46.7629 89.4644C48.8195 89.0821 50.7933 88.0693 52.6018 86.4778C54.9271 84.4419 56.9629 81.476 58.5441 77.6523C58.8128 77.0116 58.9678 76.3605 59.0505 75.6991C59.1228 75.4614 59.1435 75.1824 59.1435 74.9033ZM76.4535 68.0207C75.8334 69.5398 74.924 70.904 73.7149 72.1337C72.4334 73.4359 70.8419 74.5623 68.8991 75.5131C68.8784 76.0298 68.8577 76.5155 68.8061 76.9909C68.7441 77.8176 68.6407 78.6754 68.496 79.5538C67.938 83.0468 66.7495 85.6304 65.5611 88.1933C64.786 89.8675 64.0213 91.521 63.4839 93.3502C63.2875 94.0116 63.2255 94.6006 63.2565 95.138C63.3185 96.0474 63.7009 96.7812 64.3003 97.3599C64.972 98.0213 65.9228 98.507 66.9769 98.817C68.1447 99.1581 69.4365 99.2924 70.6663 99.2097C71.7617 99.1374 72.8881 98.9204 73.9939 98.6207C75.141 98.3106 76.2468 97.9076 77.3009 97.4632C78.2723 97.0602 79.1921 96.6055 80.0705 96.0888C80.9696 95.572 81.8274 94.9933 82.6644 94.3836C85.4754 92.3167 87.4389 90.0845 88.6274 87.8213C89.7021 85.7544 90.1155 83.6359 89.9088 81.5793C89.7021 79.5021 88.8547 77.4456 87.4286 75.5027C85.5994 73.0122 82.8091 70.7283 79.1404 68.8371C78.5307 68.5167 77.89 68.2997 77.2389 68.1757C77.0012 68.093 76.7325 68.0517 76.4535 68.0207ZM68.062 51.9921C69.6018 52.5502 71.0073 53.3976 72.2887 54.5447C73.6529 55.7745 74.8517 57.3143 75.8851 59.2055C76.3708 59.2055 76.8669 59.2158 77.3629 59.2365C78.2517 59.2675 79.0991 59.3295 79.9362 59.4225C83.4292 59.8255 86.0644 60.9003 88.6894 61.9854C90.3739 62.6675 92.048 63.3599 93.9495 63.8249C93.9702 63.8353 93.9805 63.8353 94.0116 63.8456C94.6523 64.0006 95.231 64.0316 95.7374 63.9799C96.6468 63.8869 97.3599 63.4632 97.9179 62.8432C98.538 62.1404 98.9824 61.169 99.2511 60.0942C99.5404 58.9161 99.6024 57.614 99.4784 56.3945C99.3647 55.2888 99.096 54.183 98.755 53.0875C98.3933 51.9611 97.9489 50.8657 97.4529 49.8322C97.0085 48.8918 96.5021 47.9824 95.9544 47.1246C95.4067 46.2772 94.797 45.4401 94.1356 44.6134C91.9447 41.8954 89.6298 40.0353 87.3149 38.9605C85.2067 37.9891 83.0675 37.6687 81.0213 37.9581C78.9544 38.2577 76.9392 39.1878 75.0584 40.6967C72.6505 42.6292 70.4906 45.5228 68.7647 49.2638C68.4754 49.8942 68.2894 50.5453 68.1757 51.1964C68.1137 51.4444 68.0827 51.7131 68.062 51.9921ZM70.3562 57.459C68.7647 55.8675 66.5635 54.8857 64.135 54.8857C61.7064 54.8857 59.5052 55.8675 57.9137 57.459C56.3222 59.0505 55.3404 61.2517 55.3404 63.6802C55.3404 66.1088 56.3222 68.31 57.9137 69.8912C59.5052 71.4827 61.7064 72.4644 64.135 72.4644C66.5635 72.4644 68.7647 71.4723 70.3562 69.8912C71.9477 68.2997 72.9295 66.0985 72.9295 63.6802C72.9295 61.262 71.9374 59.0401 70.3562 57.459ZM52.0438 59.2468C52.5915 57.6967 53.4389 56.2912 54.5757 55.0097C55.7848 53.6559 57.335 52.4571 59.2261 51.4134C59.2261 50.9173 59.2261 50.4316 59.2468 49.9356C59.2778 49.0571 59.3398 48.1994 59.4328 47.3623C59.8255 43.8486 60.9003 41.2134 61.9647 38.5988C62.6571 36.8936 63.3495 35.1884 63.8043 33.3386C63.9696 32.6772 64.0109 32.0778 63.9489 31.5508C63.8559 30.6517 63.4219 29.9283 62.8018 29.3702C62.0888 28.7398 61.1277 28.3058 60.0529 28.0474C58.8748 27.7684 57.5726 27.696 56.3532 27.8304C55.2474 27.9544 54.1313 28.2128 53.0462 28.5641C51.9404 28.9155 50.845 29.3702 49.7909 29.8663C48.8505 30.3106 47.9514 30.817 47.0833 31.3751C46.2049 31.9435 45.3678 32.5429 44.5824 33.1939C41.8644 35.3951 40.0043 37.71 38.9295 40.0456C37.9581 42.1538 37.6377 44.293 37.9477 46.3289C38.2474 48.3957 39.1775 50.4109 40.6967 52.2815C42.6395 54.679 45.5331 56.8389 49.2845 58.5647C49.9149 58.8541 50.566 59.0401 51.2067 59.1435C51.4857 59.1951 51.7647 59.2261 52.0438 59.2468ZM63.4942 15.9046C89.7848 15.9046 111.094 37.214 111.094 63.5046C111.094 89.7951 89.7848 111.105 63.4942 111.105C37.2036 111.105 15.8942 89.7951 15.8942 63.5046C15.8942 37.214 37.2036 15.9046 63.4942 15.9046ZM111.673 9.87964C115.011 9.87964 117.708 12.5872 117.708 15.9149C117.708 19.2529 115.001 21.9502 111.673 21.9502C108.345 21.9502 105.638 19.2426 105.638 15.9149C105.638 12.5769 108.345 9.87964 111.673 9.87964ZM15.3052 9.87964C18.6432 9.87964 21.3404 12.5872 21.3404 15.9149C21.3404 19.2529 18.6328 21.9502 15.3052 21.9502C11.9672 21.9502 9.26991 19.2426 9.26991 15.9149C9.26991 12.5769 11.9775 9.87964 15.3052 9.87964ZM111.673 105.131C115.011 105.131 117.708 107.839 117.708 111.167C117.708 114.494 115.001 117.202 111.673 117.202C108.345 117.202 105.638 114.494 105.638 111.167C105.638 107.839 108.345 105.131 111.673 105.131ZM21.3508 111.167C21.3508 114.505 18.6432 117.202 15.3155 117.202C11.9775 117.202 9.28024 114.494 9.28024 111.167C9.28024 107.839 11.9878 105.131 15.3155 105.131C18.6432 105.131 21.3508 107.839 21.3508 111.167Z" fill="#0A69F9"/>
</svg>
