<svg width="164" height="164" viewBox="0 0 164 164" fill="none" xmlns="http://www.w3.org/2000/svg">
<g opacity="0.5">
<path d="M65.6002 141.798C50.1637 141.798 39.6677 138.498 32.5952 131.405C25.5022 124.312 22.2017 113.836 22.2017 98.4V65.6C22.2017 50.1635 25.5022 39.6675 32.5952 32.595C39.6882 25.502 50.1637 22.2015 65.6002 22.2015H98.4002C113.837 22.2015 124.333 25.502 131.405 32.595C138.498 39.688 141.799 50.1635 141.799 65.6C141.799 68.429 139.503 70.725 136.674 70.725C133.845 70.725 131.549 68.429 131.549 65.6C131.549 41.123 122.877 32.4515 98.4002 32.4515H65.6002C41.1232 32.4515 32.4517 41.123 32.4517 65.6V98.4C32.4517 122.877 41.1232 131.548 65.6002 131.548C68.4292 131.548 70.7252 133.844 70.7252 136.673C70.7252 139.502 68.4292 141.798 65.6002 141.798Z" fill="#0A69F9"/>
<path d="M54.5917 116.85C53.4642 116.85 52.3367 116.481 51.3937 115.722C45.4692 110.987 42.7017 103.525 42.7017 92.25V71.75C42.7017 61.5615 44.9362 54.571 49.7537 49.7535C54.5712 44.936 61.5617 42.7015 71.7502 42.7015H92.2502C103.566 42.7015 111.049 45.4895 115.764 51.496C117.506 53.7305 117.117 56.949 114.903 58.6915C112.668 60.434 109.45 60.0445 107.707 57.8305C106.067 55.7395 102.664 52.9515 92.2707 52.9515H71.7502C57.5232 52.9515 52.9517 57.523 52.9517 71.75V92.25C52.9517 102.664 55.7192 106.067 57.7897 107.727C60.0037 109.49 60.3727 112.709 58.6097 114.923C57.5847 116.194 56.1087 116.85 54.5917 116.85Z" fill="#0A69F9"/>
<path d="M54.7349 32.4515C51.9059 32.4515 49.6099 30.1555 49.6099 27.3265V13.6735C49.6099 10.8445 51.9059 8.54852 54.7349 8.54852C57.5639 8.54852 59.8599 10.8445 59.8599 13.6735V27.347C59.8599 30.1555 57.5639 32.4515 54.7349 32.4515Z" fill="#0A69F9"/>
<path d="M82 32.4515C79.171 32.4515 76.875 30.1555 76.875 27.3265V13.6735C76.875 10.8445 79.171 8.54852 82 8.54852C84.829 8.54852 87.125 10.8445 87.125 13.6735V27.347C87.125 30.1555 84.829 32.4515 82 32.4515Z" fill="#0A69F9"/>
<path d="M109.327 32.4515C106.498 32.4515 104.202 30.1555 104.202 27.3265V13.6735C104.202 10.8445 106.498 8.54852 109.327 8.54852C112.156 8.54852 114.452 10.8445 114.452 13.6735V27.347C114.452 30.1555 112.156 32.4515 109.327 32.4515Z" fill="#0A69F9"/>
<path d="M150.326 59.7985H136.653C133.824 59.7985 131.528 57.5025 131.528 54.6735C131.528 51.8445 133.824 49.5485 136.653 49.5485H150.326C153.155 49.5485 155.451 51.8445 155.451 54.6735C155.451 57.5025 153.155 59.7985 150.326 59.7985Z" fill="#0A69F9"/>
<path d="M54.7349 155.452C51.9059 155.452 49.6099 153.156 49.6099 150.327V136.653C49.6099 133.824 51.9059 131.528 54.7349 131.528C57.5639 131.528 59.8599 133.824 59.8599 136.653V150.327C59.8599 153.156 57.5639 155.452 54.7349 155.452Z" fill="#0A69F9"/>
<path d="M27.3263 59.7985H13.6733C10.8443 59.7985 8.54834 57.5025 8.54834 54.6735C8.54834 51.8445 10.8443 49.5485 13.6733 49.5485H27.3468C30.1758 49.5485 32.4718 51.8445 32.4718 54.6735C32.4513 57.5025 30.1553 59.7985 27.3263 59.7985Z" fill="#0A69F9"/>
<path d="M27.3263 87.125H13.6733C10.8443 87.125 8.54834 84.829 8.54834 82C8.54834 79.171 10.8443 76.875 13.6733 76.875H27.3468C30.1758 76.875 32.4718 79.171 32.4718 82C32.4513 84.829 30.1553 87.125 27.3263 87.125Z" fill="#0A69F9"/>
<path d="M27.3263 114.451H13.6733C10.8443 114.451 8.54834 112.155 8.54834 109.326C8.54834 106.497 10.8443 104.201 13.6733 104.201H27.3468C30.1758 104.201 32.4718 106.497 32.4718 109.326C32.4718 112.155 30.1553 114.451 27.3263 114.451Z" fill="#0A69F9"/>
<path d="M114.185 132.163C105.37 132.163 98.1948 124.988 98.1948 116.173C98.1948 107.358 105.37 100.183 114.185 100.183C123 100.183 130.175 107.358 130.175 116.173C130.175 124.988 123 132.163 114.185 132.163ZM114.185 110.433C111.028 110.433 108.445 113.016 108.445 116.173C108.445 119.33 111.028 121.913 114.185 121.913C117.342 121.913 119.925 119.33 119.925 116.173C119.925 113.016 117.342 110.433 114.185 110.433Z" fill="#0A69F9"/>
<path d="M125.747 155.39C121.934 155.39 118.182 153.422 116.071 149.876L115.661 149.199C115.64 149.179 115.64 149.158 115.62 149.138C114.923 147.928 114.308 147.518 114.103 147.457C113.918 147.518 113.303 147.928 112.586 149.138C112.565 149.158 112.565 149.179 112.545 149.199L112.135 149.876C109.039 155.083 102.213 156.887 96.9239 153.873C96.9034 153.873 96.9034 153.853 96.8829 153.853L90.6714 150.224C87.9039 148.605 85.9359 146.042 85.0954 142.967C84.2549 139.872 84.6854 136.612 86.3049 133.845C87.0019 132.635 87.0429 131.897 87.0019 131.692C86.8584 131.569 86.2024 131.221 84.8289 131.221C84.7674 131.221 84.7264 131.221 84.6649 131.221C81.5694 131.221 78.6379 130.032 76.4239 127.838C74.1074 125.563 72.8364 122.529 72.8364 119.269V112.914C72.8364 106.313 78.2074 100.963 84.7879 100.963C86.2024 100.963 86.8584 100.614 87.0019 100.491C87.0429 100.307 87.0019 99.548 86.3049 98.3385C84.6854 95.571 84.2754 92.332 85.1159 89.216C85.9564 86.1205 87.9449 83.558 90.7124 81.9795L96.9239 78.3715C102.192 75.276 109.019 77.0595 112.176 82.369L112.586 83.0455C112.606 83.066 112.606 83.0865 112.627 83.107C113.324 84.3165 113.939 84.7265 114.144 84.788C114.328 84.7265 114.943 84.3165 115.661 83.107C115.681 83.0865 115.681 83.066 115.702 83.0455L116.112 82.369C119.207 77.162 126.034 75.358 131.323 78.3715C131.343 78.3715 131.343 78.392 131.364 78.392L137.575 82.0205C143.315 85.362 145.263 92.701 141.942 98.4C141.245 99.6095 141.204 100.348 141.245 100.553C141.388 100.676 142.044 101.024 143.459 101.024C150.06 101.024 155.41 106.395 155.41 112.976V119.331C155.41 125.932 150.039 131.282 143.459 131.282C142.044 131.282 141.388 131.631 141.245 131.754C141.204 131.938 141.245 132.697 141.942 133.906C143.561 136.674 143.971 139.913 143.131 143.029C142.29 146.124 140.281 148.707 137.514 150.286L131.384 153.853C129.601 154.898 127.653 155.39 125.747 155.39ZM124.476 143.972L124.865 144.628C125.152 145.099 125.706 145.284 126.116 145.038C126.136 145.038 126.136 145.017 126.157 145.017L132.368 141.389C132.389 141.368 132.409 141.368 132.43 141.348C132.942 141.061 133.147 140.589 133.209 140.323C133.27 140.056 133.352 139.544 133.045 139.031C130.523 134.685 130.257 130.155 132.327 126.588C134.377 123.041 138.416 120.991 143.418 120.991C144.34 120.991 145.119 120.212 145.119 119.29V112.935C145.119 112.012 144.34 111.233 143.418 111.233C138.416 111.233 134.377 109.204 132.327 105.637C130.277 102.09 130.544 97.5595 133.045 93.2135C133.537 92.373 133.229 91.348 132.368 90.8355L126.177 87.2275C125.726 86.9815 125.132 87.1455 124.865 87.5965L124.476 88.2525C121.975 92.578 118.203 95.038 114.103 95.038C110.003 95.038 106.231 92.5575 103.73 88.2525L103.34 87.617C103.053 87.1455 102.5 86.961 102.09 87.207C102.069 87.207 102.069 87.2275 102.049 87.2275L95.8374 90.856C95.8169 90.8765 95.7964 90.8765 95.7759 90.897C95.2634 91.184 95.0584 91.6555 94.9969 91.922C94.9354 92.1885 94.8534 92.701 95.1609 93.2135C97.6824 97.5595 97.9489 102.09 95.8784 105.657C93.8284 109.204 89.7899 111.254 84.7879 111.254C83.8654 111.254 83.0864 112.033 83.0864 112.955V119.31C83.0864 119.966 83.4144 120.376 83.5989 120.581C83.8039 120.786 84.1729 121.032 84.7059 121.032C84.7469 121.032 84.7674 121.032 84.8084 121.032C89.8104 121.032 93.8489 123.062 95.8989 126.629C97.9489 130.175 97.6824 134.706 95.1814 139.052C94.8739 139.564 94.9149 140.036 94.9969 140.323C95.0789 140.589 95.2839 141.081 95.8374 141.409L102.008 145.017C102.459 145.284 103.053 145.12 103.32 144.648L103.73 143.972C106.231 139.667 110.003 137.207 114.082 137.207C118.203 137.207 121.975 139.667 124.476 143.972Z" fill="#0A69F9"/>
</g>
</svg>
