<svg width="135" height="120" viewBox="0 0 135 120" fill="none" xmlns="http://www.w3.org/2000/svg">
<g opacity="0.5">
<path d="M32 74.8592V62.0775H62.5027V74.8592H32ZM32 88.3803V81.4085H68.2021V88.3803H32ZM39.8104 100V25H67.1467C70.8056 25 74.0775 25.7042 76.9624 27.1127C79.9177 28.5211 82.4156 30.4225 84.4562 32.8169C86.5671 35.2113 88.1854 37.8873 89.3113 40.8451C90.4371 43.8028 91 46.831 91 49.9296C91 54.1549 90.0501 58.169 88.1503 61.9718C86.3208 65.7747 83.6822 68.8732 80.2343 71.2676C76.7865 73.662 72.6351 74.8592 67.78 74.8592H54.2701V100H39.8104ZM54.2701 62.0775H66.8301C69.0113 62.0775 70.8056 61.5845 72.2129 60.5986C73.6202 59.6127 74.6404 58.2042 75.2737 56.3732C75.9773 54.4718 76.3292 52.3239 76.3292 49.9296C76.3292 47.3239 75.907 45.1056 75.0626 43.2747C74.2886 41.4437 73.1276 40.0704 71.5796 39.1549C70.102 38.2394 68.3077 37.7817 66.1968 37.7817H54.2701V62.0775Z" fill="#0A69F9"/>
<path d="M134.25 55.6456L134.25 79.2986C134.25 82.1276 131.954 84.4236 129.125 84.4236C126.296 84.4236 124 82.1276 124 79.2986L124 55.6251C124 52.7961 126.296 50.5001 129.125 50.5001C131.954 50.5206 134.25 52.8166 134.25 55.6456Z" fill="#0A69F9"/>
<path d="M59.7985 119.597C46.5145 119.597 36.9 119.597 29.1305 118.551C20.213 117.362 14.1655 114.739 9.512 110.085C4.8585 105.431 2.255 99.384 1.0455 90.4665C-2.93255e-07 82.6765 0 73.0825 0 59.7985C0 46.5145 -2.93255e-07 36.9 1.0455 29.1305C2.2345 20.213 4.8585 14.1655 9.512 9.512C14.1655 4.8585 20.213 2.255 29.1305 1.0455C36.9205 -2.93255e-07 46.5145 0 59.7985 0C73.0825 0 82.697 -2.93255e-07 90.4665 1.0455C99.384 2.2345 105.431 4.8585 110.085 9.512C114.739 14.1655 117.342 20.213 118.551 29.1305C119.597 36.9205 119.597 46.5145 119.597 59.7985C119.597 73.0825 119.597 82.697 118.551 90.4665C117.362 99.384 114.739 105.431 110.085 110.085C105.431 114.739 99.384 117.342 90.4665 118.551C82.697 119.597 73.0825 119.597 59.7985 119.597ZM59.7985 10.25C35.465 10.25 23.2675 10.25 16.769 16.7485C10.2705 23.247 10.2705 35.465 10.2705 59.778C10.2705 84.1115 10.2705 96.309 16.769 102.808C23.2675 109.306 35.4855 109.306 59.7985 109.306C84.132 109.306 96.3295 109.306 102.828 102.808C109.327 96.309 109.326 84.091 109.326 59.778C109.326 35.4445 109.327 23.247 102.828 16.7485C96.3295 10.25 84.132 10.25 59.7985 10.25Z" fill="#0A69F9"/>
</g>
</svg>
