<svg width="277" height="148" viewBox="0 0 277 148" fill="none" xmlns="http://www.w3.org/2000/svg">
<g opacity="0.5" clip-path="url(#clip0_15_1432)">
<path d="M193.437 26.7932L193.567 27.0881L193.895 27.7383L194.641 28.1289L195.234 27.7217L195.899 27.825L196.605 27.6602L197.262 27.4876L197.717 27.1588L197.796 26.6468L198.285 25.7739L197.762 25.2432L196.868 25.4788L196.374 25.9014L195.834 26.2919L195.637 26.2613L195.357 25.7932L194.704 26.266L194.249 26.5948L193.908 26.8415L193.408 26.4891L193.437 26.7932Z" fill="#0A69F9"/>
<path d="M185.387 31.2099L185.781 31.2711L186.243 31.8673L186.004 32.4295L186.616 32.8741L187.499 33.0363L187.807 33.4838L188.472 33.5871L189.294 33.4901L189.389 32.8806L188.989 32.369L189.273 32.1635L189.61 32.5904L190.489 31.4786L191.231 30.9198L191.481 31.2583L192.167 30.7406L192.447 30.2348L191.792 29.9083L191.281 30.2782L190.803 29.7796L190.175 29.2823L189.586 28.6914L189.883 28.2383L190.281 27.9505L190.432 28.9229L190.783 29.4268L191.502 29.6635L191.972 29.5617L192.341 29.6191L192.771 29.2864L192.716 28.5038L192.101 28.4082L192.355 27.7485L192.427 27.2852L191.936 27.3588L190.73 27.1713L190.275 27.5002L189.62 27.8228L189.22 27.3112L188.084 27.4842L188.056 28.1539L188.309 28.4681L188.639 28.9437L188.893 29.2578L188.421 29.5341L187.955 28.9623L187.931 28.9585L187.59 29.2051L187.257 28.7538L186.294 28.7791L185.91 28.4946L185.662 28.9554L185.912 29.2939L185.3 29.4985L185.19 30.2055L185.565 30.7132L185.387 31.2099Z" fill="#0A69F9"/>
<path d="M192.82 37.0846L193.275 36.4312L194.138 36.3906L194.947 36.2167L196.051 35.7641L195.657 34.729L194.968 34.6219L194.008 34.148L193.475 34.4898L192.968 34.8354L192.481 35.2092L192.64 35.8082L192.994 36.2877L192.633 36.8308L192.82 37.0846Z" fill="#0A69F9"/>
<path d="M184.299 31.8895L184.408 32.8055L184.901 32.882L184.977 32.3944L184.844 31.9494L184.573 31.5827L183.965 31.4382L184.299 31.8895Z" fill="#0A69F9"/>
<path d="M164 43.4166L163.205 43.9921L163.133 44.4554L163.699 44.5434L163.828 45.0128L164.354 44.8699L164.983 44.3934L165.119 43.5157L164.43 43.4085L164 43.4166Z" fill="#0A69F9"/>
<path d="M192.237 21.8623L192.545 21.6606L192.31 21.2246L192.028 21.5803L192.237 21.8623Z" fill="#0A69F9"/>
<path d="M157.922 33.2081L157.604 32.9839L157.422 33.1804L157.733 33.4534L157.922 33.2081Z" fill="#0A69F9"/>
<path d="M156.919 30.2554L157.353 30.2229L157.305 29.7162L156.896 29.7525L156.516 29.4436L156.112 29.6057L156.588 29.9542L156.919 30.2554Z" fill="#0A69F9"/>
<path d="M151.69 30.3164L152.15 30.1133L153.158 29.7955L153.908 29.8372L154.953 29.2755L155.529 28.4911L155.347 27.7138L155.09 27.0995L154.616 27.2256L154.294 26.3766L154.003 25.9817L153.508 26.4042L153.152 27.073L153.232 26.561L153.4 25.6384L153.234 25.0881L152.861 25.0551L152.245 25.6086L152.183 26.1732L151.904 26.5045L151.897 27.527L151.385 27.897L151.258 28.876L150.904 29.6949L150.599 30.5214L150.889 30.7662L151.69 30.3164Z" fill="#0A69F9"/>
<path d="M149.795 21.9069L148.941 22.0488C148.941 22.0488 148.43 22.0942 148.327 22.1033C148.225 22.1123 147.628 22.2194 147.628 22.2194L147.27 22.738L147.047 23.2027L146.638 23.5636L146.685 24.0703L145.969 24.4584L146.223 24.7725L146.689 24.6951L146.979 25.2645L146.952 25.7598L147.232 26.2278L148.083 26.4349L148.13 26.9416L148.778 26.6678L148.997 27.2013L149.764 27.6201L150.609 27.3769L151.058 26.9223L150.853 26.2912L150.463 25.5564L150.874 25.3457L151.12 24.7347L151.033 23.9971L151.217 23.3015L150.407 22.6762L149.997 23.037L149.615 23.5519L149.363 23.3879L149.67 22.7115L149.795 21.9069Z" fill="#0A69F9"/>
<path d="M147.054 34.1904L147.444 34.6006L147.955 34.2307L147.999 33.788L147.537 34.1656L147.054 34.1904Z" fill="#0A69F9"/>
<path d="M142.207 32.7629L141.793 32.6734L141.55 32.9354L141.787 33.1969L142.207 32.7629Z" fill="#0A69F9"/>
<path d="M136.027 42.8389C136.039 42.7657 136.395 42.7462 136.395 42.7462L136.408 42.1739L135.931 42.3245C135.906 42.3207 136.016 42.912 136.027 42.8389Z" fill="#0A69F9"/>
<path d="M133.785 39.0945L133.698 38.3568L133.227 38.6331L133.405 39.1102L133.785 39.0945Z" fill="#0A69F9"/>
<path d="M132.8 43.1611L132.662 43.5641L133.302 43.6636L133.573 44.0303L133.706 43.5016L133.348 43.3711L132.8 43.1611Z" fill="#0A69F9"/>
<path d="M134.374 21.6822L134.554 21.3357L134.033 20.9551L133.777 21.1401L134.025 21.3285L134.374 21.6822Z" fill="#0A69F9"/>
<path d="M127.748 47.4445L128.181 47.0874L128.401 46.6471L128.134 46.2561L127.774 46.3L127.45 46.5993L127.554 47.0649L127.748 47.4445Z" fill="#0A69F9"/>
<path d="M125.071 48.2773L125.437 48.0345L125.978 48.1186L126.514 47.7525L126.143 47.2204L125.681 47.2734L125.198 47.6228L124.698 47.9197L125.071 48.2773Z" fill="#0A69F9"/>
<path d="M124.767 43.5853L125.256 43.3616L125.799 43.5959L125.705 43.2316L124.964 42.9667L124.599 43.2096L124.767 43.5853Z" fill="#0A69F9"/>
<path d="M123.019 44.9368L123.428 44.5759L123.034 44.19L122.765 44.6227L123.019 44.9368Z" fill="#0A69F9"/>
<path d="M118.727 42.3721L119.386 42.6743L120.047 42.4774L120.413 42.5592L120.47 42.1935L119.902 41.9554L120.25 41.66L120.002 41.147L119.561 41.2282L119.421 41.1565L118.957 41.384L119.051 41.7483L118.692 42.1168L118.727 42.3721Z" fill="#0A69F9"/>
<path d="M102.365 44.4729L101.704 44.6698L101.238 44.7472L101.21 45.7415L101.204 46.265L101.583 46.4238L101.634 47.2307L102.386 47.4225L102.755 46.8307L102.481 46.1638L102.615 45.4606L102.365 44.4729Z" fill="#0A69F9"/>
<path d="M88.5047 41.3447L89.0368 41.6521L89.6107 41.3668L90.211 41.56L90.6731 40.8578L90.2622 40.0948L90.2964 39.5507L89.6658 39.228L88.8192 39.3211L88.2321 39.8541L87.7871 40.2843L87.948 41.0334L88.5047 41.3447Z" fill="#0A69F9"/>
<path d="M65.4999 36.5453L65.8692 36.2781L65.4602 35.9898L65.2784 36.1862L65.4999 36.5453Z" fill="#0A69F9"/>
<path d="M98.5138 36.4835L98.6823 37.1839L98.9418 37.2991L98.7561 38.1691L99.1216 38.5755L98.8431 38.9068L98.1974 39.0062L97.8735 39.63L98.3904 40.3596L99.0399 41.2096L99.3334 41.1054L99.6743 41.8326L100.093 41.8976L100.631 42.3308L100.559 42.794L101.244 42.6009L101.5 42.416L101.405 41.7271L101.11 41.032L101.553 40.127L101.36 39.0982L101.733 38.4821L101.877 37.5556L102.474 37.124L102.809 36.427L103.491 36.2583L103.597 35.5757L104.296 35.135L105.083 35.2574L105.701 34.5294L106.142 34.1236L106.61 34.1963L107.036 33.888L107.519 33.5386L107.79 33.9053L107.873 33.3689L107.93 33.0032L108.201 33.3699L108.644 33.4388L108.659 32.692L109.167 32.3464L109.068 32.9803L109.674 32.6501L110.436 32.294L110.542 31.6113L111.176 31.9097L111.314 31.5067L111.954 31.6062L112.632 31.7865L113.282 31.6627L113.102 31.0355L114.036 30.7062L115.193 30.8861L115.829 30.3607L117.331 30.5942L118.48 30.8228L119.024 30.4079L119.976 30.9305L121.189 30.5945L122.111 30.663L122.927 30.1157L123.825 29.5311L123.961 28.6534L123.569 27.7685L122.658 27.6269L121.641 27.8434L120.867 28.1225L120.16 28.6119L119.225 28.4665L118.53 28.5582L118.193 28.1313L117.43 28.0127L117.161 27.4715L116.454 27.3118L115.744 27.8256L114.809 27.6802L114.203 27.3613L113.252 27.638L112.735 27.5576L112.244 27.9558L111.758 28.3296L110.991 27.9107L110.904 28.4715L110.337 28.3835L109.962 27.8757L109.656 28.2276L109.974 28.7764L109.548 29.0847L109.483 29.8238L109.233 29.4853L108.438 29.4116L108.854 29.9757L107.94 29.8585L107.872 30.2974L107.231 30.1979L106.688 30.6128L105.69 30.7074L104.713 30.8301L104.667 31.1227L105.413 31.5133L105.684 31.88L104.718 31.9296L104.559 32.3044L104.076 32.6538L103.718 32.1987L102.881 32.0686L102.798 32.605L102.514 33.1351L101.891 32.7636L101.243 33.0375L101.61 33.5939L100.836 34.1977L99.9363 34.3075L99.7374 34.776L99.5063 34.6402L99.3265 34.3376L98.6239 34.1535L97.908 34.8662L97.6352 35.6478L97.9798 36.3505L98.5138 36.4835Z" fill="#0A69F9"/>
<path d="M138.056 17.1358L138.34 16.9302L137.903 16.6625L137.596 16.6897L137.368 16.8541L137.615 17.217L138.056 17.1358Z" fill="#0A69F9"/>
<path d="M145.121 17.9096L145.657 17.5434L145.707 17.2265L145.063 17.1514L144.722 17.398L144.913 17.6275L145.121 17.9096Z" fill="#0A69F9"/>
<path d="M146.032 21.6217L146.651 22.3422L147.386 21.8322L147.804 21.8972L148.526 21.6348L149.327 21.5097L149.219 20.7438L149.363 19.8173L149.891 19.5L149.554 19.073L148.888 18.1704L148.712 17.5188L148.077 17.2204L147.884 17.8146L147.28 17.9704L146.38 18.4049L146.263 19.1607L146.53 19.5518L146.019 19.9217L145.636 20.4366L145.971 21.038L146.032 21.6217Z" fill="#0A69F9"/>
<path d="M145.524 23.2655L145.753 23.5758L146.236 23.2264L146.549 22.6757L146.204 22.2975L145.468 22.0082L144.962 21.8547L144.93 22.5489L144.865 22.9633L145.524 23.2655Z" fill="#0A69F9"/>
<path d="M135.266 36.7027L134.82 36.3336L134.592 36.498L134.829 36.7595L135.266 36.7027Z" fill="#0A69F9"/>
<path d="M129.273 10.0526L129.692 10.1177L129.783 9.53256L129.436 9.32888L129.125 9.38048L129.319 9.76007L129.273 10.0526Z" fill="#0A69F9"/>
<path d="M127.415 13.0847L127.724 13.2076L128.413 13.3147L129.034 12.8869L129.492 12.5337L129.436 11.9256L128.936 11.8978L128.686 12.2085L127.851 12.2285L127.288 12.4408L127.656 12.6726L127.415 13.0847Z" fill="#0A69F9"/>
<path d="M126.483 10.9676L126.285 11.1115L126.555 11.4782L127.18 11.3506L127.256 10.863L126.911 10.8094L126.483 10.9676Z" fill="#0A69F9"/>
<path d="M124.81 12.0057L124.715 12.6152L125.217 12.7931L125.283 13.178L125.946 13.1312L126.429 12.7818L126.794 12.5389L127.021 12.0499L126.578 11.981L125.893 11.8495L125.501 11.2892L125.131 11.5564L124.81 12.0057Z" fill="#0A69F9"/>
<path d="M123.429 14.238L123.847 14.303L124.071 13.8384L123.716 13.6834L123.489 13.8479L123.429 14.238Z" fill="#0A69F9"/>
<path d="M122.695 12.626L122.925 12.9362L123.587 12.8895L123.853 12.4812L124.269 12.7208L124.11 12.1217L123.781 11.6461L123.097 11.9892L122.906 11.7598L122.241 11.6564L122.173 12.0953L121.747 12.4036L121.934 12.6574L122.695 12.626Z" fill="#0A69F9"/>
<path d="M127.694 7.88463L127.308 7.45005L127.054 7.78514L127.349 8.15566L127.694 7.88463Z" fill="#0A69F9"/>
<path d="M126.304 9.69102L126.781 9.54048L126.601 8.91325L126.486 8.19616L125.993 8.11963L125.91 8.656L126.372 9.25217L126.304 9.69102Z" fill="#0A69F9"/>
<path d="M123.162 9.30253L122.743 9.23747L122.634 9.29531L122.946 9.71842L123.162 9.30253Z" fill="#0A69F9"/>
<path d="M123.679 10.6813L123.425 10.0426L123.109 10.2931L123.33 10.6521L123.679 10.6813Z" fill="#0A69F9"/>
<path d="M124.257 8.74848L123.929 8.74749L123.865 9.16196L124.283 9.22701L124.257 8.74848Z" fill="#0A69F9"/>
<path d="M124.427 9.92373L124.364 9.83911L124.311 10.1804L124.656 10.234L124.427 9.92373Z" fill="#0A69F9"/>
<path d="M124.734 10.8702L125.047 10.6441L124.585 10.6971L124.734 10.8702Z" fill="#0A69F9"/>
<path d="M125.647 9.21438L125.278 9.15698L125.213 9.57145L125.575 9.67761L125.647 9.21438Z" fill="#0A69F9"/>
<path d="M125.231 8.47567L125.065 8.25002L124.843 8.21558L125.004 8.6401L125.231 8.47567Z" fill="#0A69F9"/>
<path d="M120.482 10.1595L120.227 10.3445L120.556 10.8202L120.999 10.8891L121.113 10.1576L120.878 9.72164L120.482 10.1595Z" fill="#0A69F9"/>
<path d="M121.675 10.2701L121.971 10.316L122.028 9.95032L121.567 9.82886L121.675 10.2701Z" fill="#0A69F9"/>
<path d="M118.297 7.67231L118.24 8.03801L117.647 7.47146L117.128 7.56559L117.187 8.32379L117.653 8.24639L117.577 8.734L118.051 8.93244L118.587 8.5663L119.244 8.39378L119.734 8.6448L120.522 8.76726L121.151 8.29069L120.713 7.69834L121.111 7.41059L120.577 6.95304L120.223 7.12272L119.882 7.36937L119.829 7.71069L119.427 8.02282L118.859 7.4601L118.297 7.67231Z" fill="#0A69F9"/>
<path d="M117.591 6.86354L118.445 6.72163L118.674 7.03191L119.225 6.89285L119.413 7.14671L119.485 6.68349L119.193 6.28859L118.848 6.23501L118.593 6.0954L117.928 5.99208L117.574 5.51255L117.216 6.03121L117.532 6.42994L117.591 6.86354Z" fill="#0A69F9"/>
<path d="M118.708 9.40928L118.437 9.36719L118.479 9.7482L119.016 9.85677L118.708 9.40928Z" fill="#0A69F9"/>
<path d="M119.054 10.9113L118.763 10.5164L118.681 10.2291L118.369 10.4552L118.532 10.7052L119.054 10.9113Z" fill="#0A69F9"/>
<path d="M122.135 6.82088L121.535 6.62769L121.471 7.04215L121.791 7.0919L122.135 6.82088Z" fill="#0A69F9"/>
<path d="M265.761 82.6804L265.886 81.8758L265.859 80.7481L265.706 78.9764L265.735 77.6575L265.06 76.8036L264.165 75.5907L263.521 75.191L263.33 73.6631L263.764 72.9814L263.877 72.25L264.807 72.2697L264.883 71.7821L263.747 71.3059L263.455 70.9109L262.783 70.5318L262.167 69.1377L262.126 67.4583L262.685 66.6213L263.442 66.2896L263.984 66.0492L263.802 65.2718L263.092 64.4873L261.662 64.4398L261.162 63.7629L260.429 63.4492L259.788 61.9012L259.693 60.8877L260.543 60.7702L260.985 60.0398L260.318 59.1371L259.629 59.03L259.146 59.3794L258.125 58.971L257.18 58.0751L257.127 57.118L256.232 55.9051L255.841 56.4687L255.387 56.7975L255.334 57.1389L255.523 57.8674L254.366 57.6876L253.808 56.9016L252.766 56.1405L252.783 55.2192L252.789 54.0466L252.122 53.144L251.643 52.4952L251.227 51.931L250.77 50.8114L251.282 50.4414L251.445 49.3931L251.937 49.4696L252.818 48.8324L252.108 48.3725L252.225 47.6167L251.964 46.3776L252.464 46.4053L252.943 47.0541L253.674 47.5423L253.776 46.884L253.25 45.7285L253.345 45.119L253.843 44.0228L253.468 43.5151L254.519 42.43L255.25 41.2952L256.333 41.139L257.015 41.6195L257.799 41.1171L257.424 40.6094L256.856 39.7221L256.691 38.0235L256.873 36.8532L256.192 36.0481L255.97 34.7153L255.974 33.3925L255.707 32.3523L255.639 31.1681L255.866 29.7053L255.772 28.3672L255.246 27.2117L255.586 26.965L254.725 26.1819L255.028 25.8545L255.89 25.9884L256.609 24.9267L257.471 24.7361L257.604 23.8827L257.104 23.2058L256.918 22.4528L256.178 22.8371L255.791 22.4025L255.238 22.3915L254.727 22.7614L254.013 22.6505L253.756 23.0099L253.017 22.8951L253.112 22.2856L252.193 22.1928L251.69 22.1894L251.082 22.045L250.771 22.4212L250.174 22.8528L249.284 22.7394L248.735 23.0286L248.614 23.8088L248.042 23.9196L247.737 23.4477L248.523 22.7709L248.08 22.702L247.32 22.8836L247.718 22.2713L248.637 22.0395L249.252 22.1352L250.08 21.1901L250.052 20.2369L249.913 19.0169L249.33 18.2271L248.789 17.4937L248.362 17.802L248.435 17.0142L247.819 16.9185L246.87 17.0207L246.412 16.4001L246.495 15.8638L245.8 15.6309L246.084 15.4254L246.48 15.3121L246.23 14.9736L246.34 14.5912L246.721 14.9L247.107 15.3346L247.895 15.4571L248.501 15.1268L248.978 15.6255L249.774 15.05L249.933 14.026L249.732 13.3705L250.581 12.4537L251.368 12.5762L251.946 12.9156L252.853 12.757L253.448 11.8507L254.453 11.0582L255.4 11.1304L255.933 10.1395L255.274 9.83727L255.323 9.52033L256.185 9.65426L255.991 8.95007L256.075 8.4137L255.544 8.90557L255.082 8.95859L254.666 8.06985L254.02 7.19543L253.952 7.63428L253.049 7.11933L252.492 7.45726L251.772 7.22056L252.802 6.75646L252.935 5.90315C252.935 5.90315 253.295 5.21 253.011 5.41554C252.727 5.62108 252.111 5.52541 252.111 5.52541L252.698 4.66783L252.344 4.18831L251.871 3.66528C251.871 3.66528 252.261 2.77709 251.977 2.98262C251.693 3.18816 250.973 3.27606 250.973 3.27606L250.076 4.18523L249.78 4.13931L248.739 4.35195L248.085 4.82469L247.58 5.32038L247.392 6.04031L246.956 5.92267L246.9 6.28838L247.538 6.56236L246.667 6.97628L246.307 7.66942L247.015 7.97927L248.161 8.23226L249.176 8.19029L249.1 8.6779L248.032 9.0612L247.407 9.51338L246.668 8.74938L245.687 8.89653L245.125 8.13494L244.509 8.36387L243.534 8.63675L242.674 9.30212L241.207 9.49847L240.305 10.432L239.207 10.6858L238.241 11.3846L237.303 12.0629L236.337 12.4371L235.023 12.7821L234.285 13.3165L232.665 14.4881L231.224 15.4876L230.722 16.6081L229.874 17.5249L229.514 18.2181L229.654 18.939L229.088 18.851L228.366 19.1133L228.16 19.9552L227.364 20.2061L227.046 20.9557L226.978 21.3945L227.79 21.5208L227.949 22.1198L229.01 22.1099L230.318 22.9375L230.75 23.0795L230.894 23.776L230.595 24.4037L229.752 24.4725L228.776 24.7453L228.074 24.8858L227.114 24.7366L226.593 24.0314L227.275 23.5381L226.608 22.6355L226.097 23.0055L225.529 23.7411L225.97 24.6337L225.722 25.0945L226.076 25.574L225.678 26.511L224.53 27.0817L224.405 27.8862L223.78 28.3384L223.165 28.2428L222.689 28.868L222.481 30.2089L221.621 30.8743L221.534 31.4351L221.867 31.8864L221.08 31.7639L220.25 32.2342L219.148 32.5124L218.169 31.1866L217.711 30.5661L216.571 30.4388L215.186 30.4234L214.254 31.2274L213.26 31.9468L211.991 33.2976L211.809 34.4679L210.838 35.3656L209.929 36.0233L209.059 35.9381L208.336 35.4012L207.133 35.8385C207.133 35.8385 207.211 36.7994 207.133 36.8123C207.133 36.8123 207.133 36.8123 207.109 36.8085C207.005 36.6674 206.446 35.8815 206.446 35.8815L205.777 36.4517L204.891 36.314C204.891 36.314 204.38 36.0347 204.664 35.8292C204.948 35.6237 205.393 35.1935 205.393 35.1935L204.738 34.5423L203.424 34.8873L202.498 35.1679L201.969 36.1344L201.71 36.6684L201.755 37.9988L201.634 38.779L200.842 39.3301L201.285 37.776L200.535 37.4097L199.825 37.9236L199.087 38.1334L199.553 37.0822C199.553 37.0822 200.386 36.9121 200.424 36.6683C200.462 36.4245 200.316 36.227 200.316 36.227L199.051 36.5797L197.437 36.9032L196.973 37.7799L195.729 38.1608L194.941 38.0383L194.316 38.4905L195.094 39.1608L195.13 39.7407L194.094 40.4037L193.962 41.257L194.405 41.6505L194.986 40.6672L195.244 40.9569L195.104 41.859L195.736 42.3318L196.257 43.037L196.526 43.2536L195.816 43.7674L195.035 43.5962L194.516 44.0149L194.119 44.3027L195.011 44.8908L194.916 45.5003L194.043 45.1149L193.247 45.0412L192.151 45.1205L191.422 46.0808L191.456 47.1598L190.422 46.9991L189.473 47.1013L188.994 46.4525L187.979 46.1699L187.865 46.9013L188.323 47.5219L188.236 48.0826L188.388 48.7304L188.598 50.1364L188.403 50.9051L187.543 50.272L187.117 50.5803L186.282 50.2757L185.731 49.7656L185.064 48.863L184.223 48.7573L184.326 48.099C184.326 48.099 184.14 47.6706 184.045 47.6309C184.021 47.6271 184.021 47.6271 184.013 47.6759C183.983 47.8709 183.509 47.9971 183.506 48.0215L183.006 47.3445L183.375 47.0773L183.943 46.9908L184.083 46.0887L183.729 45.6092L182.866 45.9744L182.987 45.1942L182.591 44.6583L182.123 44.5856L182.599 43.6357L181.663 43.1657L181.322 43.4123L180.518 42.5881C180.518 42.5881 180.398 42.8692 180.165 42.9079C180.141 42.9041 180.088 42.9208 180.063 42.917C180.039 42.9131 180.014 42.9093 180.014 42.9093C179.756 42.9442 179.679 43.6063 179.679 43.6063L179.321 43.8003L179.058 43.3849L179.004 43.4016L178.722 43.4326L178.474 43.8935L177.878 43.3513L177.503 42.8436L176.925 43.1533L176.509 42.5892L176.31 43.0576L175.993 43.9573L176.465 44.9794L176.463 45.8031C176.463 45.8031 176.537 46.4638 176.374 46.5383L176.349 46.5345C176.152 46.5039 175.215 46.533 175.215 46.533L174.239 47.1305L173.328 47.3135L172.957 46.4568L172.766 46.8765L172.668 47.1858L171.461 46.9983L170.878 46.2085L171.219 45.9618L170.971 45.4488L169.683 45.6232L168.087 45.6747L166.969 46.0503L166.089 46.6875L165.634 47.0164L166.117 47.6407L165.575 47.5566L165.189 46.7974L165.314 45.9928L164.939 45.4851L164.312 46.1118L164.064 46.5726L163.301 46.1294L162.638 45.8515L162.146 45.775L161.523 45.7281L161.47 46.394L161.371 46.7033L161.856 46.8286L162.106 47.1671L161.595 47.8617L160.892 48.0022L160.116 48.4558C160.116 48.4558 159.879 49.168 159.509 49.1106C159.14 49.0532 158.445 49.145 158.445 49.145L157.638 49.469L157.686 50.3003L156.898 50.5025L157.208 49.8017L157.544 48.7801L158.339 48.2046L158.779 47.3241L159.801 47.2333L160.244 46.0038L160.955 45.49L161.379 44.3824L161.443 43.9679L162.407 43.119L162.947 42.7284L163.462 42.0095L163.968 41.5138L164.093 40.7093L164.633 40.3187L164.252 39.3607L163.508 38.7955L163.237 38.4288L164.023 38.7258L164.23 37.884L163.771 37.2634L163.397 36.7557L163.052 37.0267L162.624 36.5357L162.33 35.6661L161.935 35.1302L161.249 35.3232L160.853 34.7873L159.925 35.2423L159.113 35.116L158.126 35.462L158.439 35.8852L158.136 36.5372C158.136 36.5372 157.516 36.1413 157.27 36.103C157.024 36.0648 157.157 35.5361 157.157 35.5361L157.782 35.0839L157.282 34.4069L156.494 34.2844L156.21 34.49L154.916 34.214L155.564 33.6156L156.303 33.0812L156.235 32.2216L155.608 32.1991L154.871 31.5852L154.1 32.1645L153.278 32.5861L152.428 34.002L152.129 34.6297L151.977 35.6049L152.259 35.8984L152.227 36.5926L151.932 36.5467L150.951 36.6938L150.04 36.5522L150.218 37.0293L150.653 37.4716L150.947 38.0166L150.161 37.7196L149.322 37.764L149.096 38.4032L147.824 38.1554L147.227 38.587L147.318 38.0019L147.826 37.3317L147.068 37.3388L146.803 37.7471L145.873 37.7274L144.777 37.8066L144.294 38.156L144.995 38.5146L144.703 38.7689L143.546 38.9137L143.091 39.2425L141.531 39.2247L141.019 39.5947L139.819 39.8575L139.232 40.7151L138.082 40.4865L138.037 41.1036L138.595 41.2404L137.961 41.5912L137.455 42.0869L137.747 42.4818L137.446 42.9594L137.709 43.3748L137.197 43.4202C137.197 43.4202 137.292 42.8107 136.947 43.0817C136.603 43.3527 136.408 43.4722 136.408 43.4722L136.762 43.9518L137.228 44.1989L137.551 44.8735L137.069 45.2229L136.281 45.1005L135.154 45.3748L133.554 45.126L133.516 45.3698L132.588 44.8511L130.668 44.5526L129.741 45.1577L129.779 46.2123L130.05 46.579L129.556 47.3262L129.158 48.2631L129.429 48.6298L129.851 49.6443L130.593 50.0593L130.457 50.6124L130.805 51.2908L130.531 51.9223L129.423 51.7501L128.819 50.9321L128.59 50.6218L129.01 49.8631L128.039 49.1378L127.58 48.5173L126.876 48.5077L126.09 48.2107L125.55 48.6012L125.528 49.0721L125.616 49.6353L125.056 49.9976L124.493 49.236L124.139 48.7565L123.2 49.2846L123.355 50.2326L123.876 50.9378L123.827 51.2548L124.508 51.7353L124.904 52.2712L125.076 52.9472L125.001 53.4348L124.414 52.6694L123.872 51.936L123.171 52.2266L122.743 51.7356L121.984 50.9434L122.098 50.212L122.257 49.188L123.109 48.5714L123.444 47.5498L123.626 46.3795L123.956 45.5568L123.291 45.4535L122.901 46.0171L123.09 46.7457L122.638 47.5492L122.024 48.2529L121.162 48.119L119.969 48.9822L119.202 49.5372L119.702 50.2141L119.475 51.0278L119.6 51.8462L119.755 52.7942L118.817 53.4725L118.285 54.4634L117.579 55.2775L117.501 56.5888L116.933 56.9999L116.935 57.7992L117.673 57.914L117.925 58.4026L118.586 58.2057L119.126 57.8151L119.605 58.4639L120.561 58.9621L120.832 59.3288L121.298 59.9006L121.591 60.7702L121.193 61.3826L121.318 62.201L120.989 62.6991L120.294 62.7908L120.254 63.5337L120.178 64.0213L120.47 64.4162L121.364 64.8298L121.276 65.3906L120.371 65.0501L119.684 64.1193L119.779 63.5098L119.881 62.5269L120.648 61.972L120.353 60.6277L120.019 60.1763L119.87 59.3541L118.915 59.3306L118.054 59.1966L117.429 59.6488L116.804 60.101L116.756 60.8926L116.821 61.7766L116.423 62.7135L115.826 63.1451L115.088 63.6795L114.662 63.9879L114.529 64.8412L113.648 65.1537L112.569 65.2856L112.285 65.4911L111.743 65.4069C111.743 65.4069 111.111 65.5833 111.232 65.7769C111.353 65.9705 110.974 66.461 110.974 66.461L110.236 66.3462L109.849 65.587L109.152 65.5286L108.427 64.8416L107.857 64.4533L107.386 63.4312L107.507 62.651L108.092 62.9417L108.467 63.4495L109.088 63.9955L109.768 63.6767L110.772 64.0324L111.387 63.8035L112.143 62.9971L113.365 62.1133L114.313 62.0111L114.721 60.5263L115.738 59.9852L115.963 59.3461L115.359 58.528L115.23 57.4094L115.672 56.679L116.354 55.2119L116.922 53.5024L117.924 52.4097L118.291 51.3432L118.753 49.9917L118.159 49.2751L118.642 48.2765L120.005 47.2899L120.434 45.8333L120.916 45.4839L120.763 44.0368L119.902 43.9029L119.485 43.3387L118.5 43.1857L118.114 42.4265L117.262 42.7185L116.667 43.6248L116.097 44.535L115.373 45.6211L114.578 46.1966L114.237 46.4432L113.283 46.7443L112.425 46.9106L111.894 47.4024L111.474 48.1611L111.989 48.4159L111.894 49.0254L111.449 49.4557L111.101 50.4002L110.998 51.0585L110.121 51.3467L109.667 51.6756L109.974 52.6221L110.678 53.281L110.328 54.4001L110.608 55.5173L111.242 55.8157L110.174 56.5236L110.041 57.3769L109.153 57.7382L108.727 56.7481L108.852 55.9436L108.307 54.91L107.801 53.7827L106.989 52.6826L106.631 51.5782L105.965 50.6756L105.152 49.5755L104.474 48.4215L104.105 48.6886L103.459 47.8142L102.789 47.9098L101.994 48.1607L101.935 49.3501L101.611 50.2985L100.804 50.2979L100.702 50.9562L99.9197 50.6349L99.522 50.9226L99.3553 51.6708L98.6698 50.8901L98.7759 50.2074L99.5088 49.8719L99.7191 49.3303L99.3442 48.8225L98.2079 48.9955L97.3462 48.8616L96.8349 49.2315L95.7518 47.7648L94.6042 47.3616L93.2898 47.7067L92.6251 47.6034L91.8223 46.6046L92.468 46.5053L92.8279 45.8121L93.6157 45.9346L93.4833 44.8403L92.7939 44.7331L91.4247 44.9448L91.311 45.6762L90.8925 45.6111L90.5744 44.7377L89.6635 44.5961L88.1429 44.16L87.2547 44.1967L85.6999 43.6554L85.7699 44.3405L84.8117 43.6921L83.7152 43.7714L83.6016 44.5028L82.4918 44.8297L81.6453 44.2736L80.7477 43.8844L80.8727 43.0799L80.7043 42.0549L80.8672 41.0066L82.2403 40.7705L83.0716 41.0995L83.5923 41.8047L84.0184 41.4964L84.3783 40.8032L84.6133 39.2916L84.0869 38.1361L83.2954 37.0642L83.1534 36.5178L82.341 36.3915L82.3618 37.3935L82.2026 38.4175L81.0739 38.8663L80.9715 39.5246L79.8296 39.8964L79.4034 40.5293L79.2442 41.5533L78.2499 42.5973L77.2348 42.6392L76.411 43.2353L75.7955 43.7888L75.9357 42.8868L76.5891 42.414L76.0627 41.2585L75.667 40.7226L74.8792 40.6001L73.7183 40.7693L72.8169 40.0798L71.567 40.335L70.3171 39.9409L70.0481 41.3473L69.2716 41.801L69.4609 42.5295L69.0632 42.8173L67.9345 42.2923L67.6354 41.2969L67.0314 40.4789L66.9955 39.2498L67.0335 37.383L66.3196 37.2721L65.5166 37.8963L65.4104 38.579L65.1964 39.4696L65.6546 40.0901L65.2985 41.0835L64.1508 41.6542L63.3801 40.6105L62.672 39.6515L63.297 38.8747L63.4258 38.695L63.1059 36.6976L63.9865 36.0605L64.121 35.6819L64.5056 34.6679L65.4146 34.0102L66.4695 33.8745L67.2328 32.6948L67.5453 31.8195L67.0454 31.1425L67.5568 30.7726L67.6913 29.7447L67.6592 28.8159L68.1137 28.487L68.4945 27.8221L68.9735 28.4708L68.4338 28.8614L68.0928 29.7572L68.6211 30.089L68.6816 31.6465L69.083 32.6328L69.2534 33.4833L69.49 34.394L70.1565 35.2966L69.986 36.3937L70.6317 37.2682L71.7319 38.1383L72.7753 38.725L74.0934 38.6802L75.2505 38.86L76.5005 37.9557L77.4077 36.8232L77.8074 35.3872L77.9968 34.4928L77.3928 33.6748L77.5615 32.4275L77.4024 31.8285L77.7585 30.8352L77.9405 29.6649L77.7985 28.4693L77.2153 27.6795L77.3707 26.6799L76.8253 26.2955L76.9579 25.4422L76.4997 24.8216L75.8672 24.3487L75.9885 23.5686L75.9128 22.7578L76.4242 22.3878L76.8199 22.9238L77.2176 23.2852L77.1343 22.5232L77.2291 21.9137L76.2519 21.7118L75.5512 21.6778L75.8562 20.8513L75.0664 21.2279L74.5874 20.5792L73.898 20.472L72.7845 19.8495L70.9286 20.4349L69.5215 20.8904L69.1804 23.0846L68.3376 24.1272L66.245 23.8019L64.7962 24.8502L64.5802 25.5906L62.618 28.1571L61.978 27.733L60.372 28.657L59.7489 28.6101L59.7243 28.6062L59.5083 29.9959L58.7242 30.1737L58.5613 31.222L57.4553 31.8492L56.2982 31.6693L55.5859 34.3052L55.4229 35.3536L53.6049 35.6952L53.5803 35.6914L44.4145 34.3166L44.8614 35.0103L45.7154 35.5176L45.4882 35.682L44.7969 35.7494L44.5809 37.1391L45.2172 37.9121L45.1091 39.0939L44.5409 39.505L44.346 38.6507L44.1396 37.8695L43.2742 37.4353L42.8027 36.7378L42.1626 36.3137L41.7365 36.622L41.4694 37.2048L40.3995 36.7888L39.5113 37.1501L38.5833 36.9559L37.75 37.7752L36.8391 37.9582L36.6951 38.5601L36.1686 39.0276L35.127 38.9156L34.6327 39.3382L34.5001 40.1915L33.4206 40.6479L32.7293 40.7153L32.8126 41.4773L32.2444 42.213L31.3353 42.8707L31.1251 43.4123L31.3693 44.2742L31.8484 44.923L31.5491 45.5507L31.2082 46.1219L31.9657 46.4394L32.5527 47.2048L32.3367 48.5945L31.4465 49.1303L31.0564 49.6939L30.2061 49.8114L29.7458 50.6638L29.1397 51.6433L28.7419 52.5802L28.685 53.2705L28.2211 53.498L28.7418 54.2032L28.3554 55.067L28.0334 55.841L27.2077 55.9623L26.4407 55.5434L26.2893 54.8957L25.9219 54.3392L25.2989 54.2923L24.9882 54.9931L24.3519 55.5184L23.4428 56.1761L22.9712 56.777L23.2458 57.4439L23.6207 57.9516L24.2343 57.5726L24.5202 58.1664L24.8876 58.7228L25.4917 58.8917L25.8666 59.3994L26.0616 60.2537L25.8854 60.9005L25.4194 61.9517L25.0009 62.2112L24.5085 62.1347L24.1676 62.7059L23.6998 62.9578L24.0368 63.7094L24.3549 64.5828L24.2223 65.4361L23.6635 66.2731L23.0272 66.7985L23.1369 67.3898L23.6766 67.9731L23.828 68.9455L24.6328 69.7697L25.3335 70.4529L25.3826 71.759L25.0038 72.574L25.5548 73.4088L26.1134 73.8701L26.2156 74.8349L26.7666 75.6696L26.634 76.5229L27.274 76.947L26.8233 77.2515L26.4217 77.8882L24.8651 77.846L24.812 78.5119L24.2571 78.3508L23.6037 78.8235L23.6358 79.7524L22.9635 80.0224L21.9124 80.7829L21.0906 79.5815L20.5358 78.7711L19.801 78.9565L19.0625 78.5171L18.0871 78.79L17.3694 79.3526L17.8352 79.5998L18.2101 80.1075L18.8729 80.3853L19.3085 80.8276L19.0224 81.5322L18.3786 81.1325L17.462 80.8652L16.9337 80.5334L16.5076 80.8417L16.0834 80.3263L15.6895 79.9405L15.2085 79.7908L14.9528 80.3004L15.1781 80.9596L14.8959 81.9645L14.3107 81.6738L13.8183 81.5972L12.8752 81.5006L12.1404 81.686L11.7503 82.2496L11.1651 81.9589L10.6255 81.051L10.1217 81.0476L9.61037 81.4176L9.68227 82.2527L9.32239 82.9459L9.54011 83.6539L9.96427 84.1693L9.70093 85.3768L10.0247 86.0514L10.2386 86.7838L10.195 88.2002L9.78007 90.0584L9.94852 91.0834L10.5015 91.0944L10.8329 91.7202L11.0885 92.1844L11.5202 92.3265L11.5921 93.1616L12.0636 94.1838L12.2074 95.2049L13.0236 95.956L13.5936 96.3442L13.8189 97.3281L14.421 97.996L14.1236 98.7737L14.6065 99.3981L14.578 100.717L15.057 101.366L15.949 101.629L16.3864 102.222L16.4659 102.683L17.1439 102.864L17.2271 103.626L17.7403 104.38L17.388 105.024L16.9239 105.576L17.3765 106.396L17.5639 107.299L17.4805 107.835L18.077 108.377L17.9993 109.364L18.234 110.774L18.2358 111.573L19.1164 111.91L20.1012 111.738L20.7204 112.134L21.7734 111.848L21.9004 110.545L22.2356 109.523L22.2055 108.095L22.3836 106.949L23.5219 105.628L23.9972 105.327L24.0427 105.035L24.5825 104.644L24.8893 103.968L25.2075 103.218L25.0826 102.4L24.7077 101.892L24.8214 101.161L25.3043 100.811L25.7777 101.01L26.6773 100.9L27.4651 101.022L28.2795 100.325L28.8836 100.169L28.9708 99.6084L29.6904 99.8451L29.9403 100.184L30.5293 100.45C30.5293 100.45 30.4099 100.731 30.7792 100.788C31.1485 100.846 31.6731 100.877 31.6731 100.877L32.0424 100.935L32.4855 101.004L33.0517 101.092L33.7524 101.126L34.2354 100.776L33.798 100.184L33.5632 99.4233L33.603 98.6804L34.2071 98.8492L34.5574 99.3531L35.0688 98.9832L35.2431 97.8617L35.2376 96.4375L35.5975 95.4198L35.1809 94.8556L34.5068 94.0018L34.0144 93.6007L34.6394 93.1485L35.0486 92.1384L34.5487 91.4614L34.3991 90.6391L35.132 90.3036L35.757 89.8514L36.488 90.015L37.2228 89.8296L37.3365 89.0982L37.9615 88.646L38.7001 88.1116L39.4879 88.234L40.0902 87.9281L40.4879 87.3158L41.1772 87.4229L41.5521 87.9307L41.1601 88.6687L41.035 89.4733L41.5349 90.1503L42.5178 90.4778L42.7129 89.7091L43.3379 89.2569L43.603 88.8487L44.5385 88.9941L45.4002 89.1281L45.9135 88.5836L46.7751 88.7175L47.5193 89.2827L48.5041 89.1111L49.1007 88.6795L50.0797 89.0315L50.2501 89.8819L50.1288 90.6621L50.6951 90.7501L51.7063 90.7325L52.1646 91.3531L52.3539 92.0817L53.2818 92.6004L53.7836 93.4275L53.7854 94.5514L54.0409 95.6648L54.2549 96.3972L53.6867 96.8083L53.5844 97.4666L54.126 97.5508L54.7434 96.8227L55.338 97.5394L55.6864 98.5424L56.3454 98.8446L57.226 98.8566L58.2297 98.5632L58.8622 99.036L59.5553 99.768L59.7559 100.423L60.5892 100.253L61.5247 100.399L61.9621 100.991L61.803 102.015L62.3237 102.72L62.3994 103.206L63.0659 104.109L63.7799 104.22L64.2912 103.85L64.7098 103.915L64.9275 104.623L65.3232 105.159L66.2663 105.256L67.1772 105.397L67.8022 104.945L68.4897 104.253L68.0106 103.604L67.9444 102.895L67.6112 102.443L67.1321 101.795L66.9693 101.22L67.422 100.416L68.2041 100.738L68.9237 100.65L69.3328 99.9644L69.1966 98.8945L69.9314 98.7091L70.9975 98.8249L71.5808 99.6147L72.147 99.7027L72.7436 99.2711L72.2853 98.6505L71.9104 98.1428L71.5127 97.7814L72.1661 97.3086L71.9655 96.6532L72.4011 95.797L73.2628 95.931L74.1225 96.564L74.7 97.2281L75.4689 97.1478L76.4726 97.5036L77.8834 97.673L78.7735 98.1109L79.4628 98.2181L80.1862 98.755L81.0251 98.7106L81.5649 98.3201L82.008 98.389L82.9832 99.0899L84.0911 99.2621L85.0285 99.233L85.7026 99.7623L86.6514 99.6601L87.6854 99.8208L88.2839 99.2147L89.1834 99.4294L89.9201 100.043L90.9541 100.204L91.2096 100.993L91.9482 101.108L92.5182 101.496L92.6791 102.57L92.395 103.1L92.2737 103.88L91.6771 104.312L91.7888 105.053L92.6618 105.438L93.55 105.077L94.0499 105.754L93.6313 106.663L94.4058 107.033L94.9172 106.663L95.5875 107.217L96.3999 107.343L96.3128 107.904L95.2598 108.189L94.8431 109.248L95.5324 109.355L96.4585 109.075L96.7993 109.802L97.8674 109.419L99.0738 109.282L99.8692 108.706L100.513 108.781L101.382 108.866L102.093 108.353L102.831 108.467L102.941 109.059L102.346 109.64L101.78 109.552L101.666 110.284L102.31 110.684L102.748 111.276L103.06 112.348L103.435 112.856L104.018 113.646L104.257 115.356L104.048 116.697L104.618 117.41L104.466 118.385L104.966 119.711L105 120.79L105.152 121.762L105.53 122.895L106.468 122.866L107.055 122.008L107.75 121.916L108.11 122.522L108.015 123.131L108.39 123.639L108.807 124.203L109.744 124.174L110.098 124.654L111.159 124.644L111.755 124.212L112.789 124.373L113.206 124.937L113.916 125.397L114.399 126.021L114.419 127.023L115.041 127.569L115.247 128.35L116.025 129.021L115.874 129.996L116.936 130.461L117.871 130.931L118.994 130.681L119.733 130.146L119.78 130.653L119.826 131.01L120.025 131.515L120.169 131.887L120.443 132.554L121.594 132.933L122.219 132.48L123.341 132.08L124.564 132.32L125.359 131.745L126.354 131.675L126.659 130.848L127.471 130.975L128.408 130.296L129.895 129.653L130.954 129.818L131.382 129.011L132.293 129.152L133.117 128.556L133.942 129.084L134.525 129.874L135.701 129.607L136.592 130.045L137.258 130.948L137.82 131.709L138.938 132.307L139.712 132.678L140.9 132.662L141.962 133.127L143.144 133.311L143.931 133.433L145.011 132.652L146.07 132.168L146.221 131.192L145.617 130.374L145.757 129.472L145.335 128.782L145.67 127.761L146.295 127.309L146.972 126.365L147.71 125.831L148.25 125.44L149.079 126.268L150.68 126.517L151.346 127.42L152.549 127.307L153.583 127.468L154.577 128.047L155.223 128.921L155.62 130.256L156.162 130.99L157.103 131.585L158.561 131.937L159.641 131.805L160.737 131.726L161.845 130.924L163.002 131.104L164.939 131.13L165.449 131.584L166.846 132.001L168.397 132.242L168.876 132.891L169.102 133.55L170.153 134.088L171.41 134.109L173.084 134.369L174.323 134.187L175.628 134.39L176.224 133.958L177.389 133.116L178.788 132.709L179.826 132.196L180.65 131.6L181.18 130.459L181.891 129.945L182.885 129.226L183.987 128.948L184.729 129.363L185.523 129.935L186.782 129.457L187.671 129.096L188.748 129.463L190.255 129.822L191.685 129.545L192.594 128.887L193.333 127.704L194.233 127.594L194.411 126.448L194.098 126.025L193.665 124.759L194.286 123.682L194.457 122.585L194.976 120.868L195.402 120.235L195.283 118.893L194.803 118.244L194.366 117.652L193.646 118.064L193.29 117.434L193.735 116.68L194.387 115.408L195.126 114.873L196.523 114.316L197.29 113.761L198.853 112.956L199.887 113.116L200.872 112.945L202.072 113.331L203.14 112.948L204.002 113.082L205.625 113.509L206.041 114.073L206.797 114.565L206.984 115.468L207.857 115.853L208.42 116.615L209.242 117.492L209.509 118.532L210.467 118.856C210.467 118.856 211.16 119.588 211.133 119.759C211.107 119.929 211.736 120.426 211.736 120.426L212.235 121.103L212.597 122.183L213.79 122.618L215.089 122.371L215.601 122.001L216.708 122.173L217.917 122.186L218.674 122.504L219.572 122.893L220.112 122.502L220.964 122.86L221.422 123.48L221.999 124.144L221.855 125.071L222.391 125.354L223.111 125.915L223.899 126.038L224.209 125.337L224.986 125.208L225.923 124.854L226.891 124.305L226.73 123.232L227.613 122.42L228.44 121.475L228.812 120.709L229.88 120.325L230.569 120.432L230.658 120.996L231.158 121.673L231.595 122.265L231.455 123.167L230.893 123.704L231.572 124.683L231.629 125.616L231.951 126.465L231.676 127.097L232.121 127.965L232.051 128.903L232.33 129.87L231.877 130.673L232.382 131.801L231.899 132.475L231.218 132.968L230.562 132.641L229.848 132.855L229.195 133.328L229.07 134.132L228.559 134.502L227.962 134.934L227.865 135.718L228.566 136.077L229.233 136.979L229.458 137.963L229.833 138.471L230.583 139.486L230.878 140.506L230.753 141.311L230.109 142.209L229.67 143.09L229.94 143.456L230.721 143.628L230.823 142.969L230.887 142.555L231.285 142.267L231.628 141.521L231.562 140.812L231.893 139.815L231.958 139.4L232.416 140.021L232.707 140.416L232.825 139.66L233.251 139.027L233.501 139.366L233.418 139.902L233.971 140.238L234.908 139.884L236.006 139.63L236.548 139.714L237.342 138.664L238.061 137.602L239.082 136.388L239.226 135.461L239.603 133.522L239.592 131.973L240.066 130.548L240.369 128.598L240.615 127.013L240.986 126.247L241.225 124.711L241.225 123.088L241.161 121.879L241.042 120.537L240.78 119.298L241.065 117.794L240.849 116.262L241.322 114.838L241.588 113.131L241.046 112.398L240.465 111.109L240.355 110.518L239.941 109.454L239.253 108.523L239.162 107.81L238.808 107.331L237.933 106.146L237.282 104.821L236.994 103.104L237.11 101.548L236.813 100.703L236.479 100.252L235.701 100.231L235.18 99.5256L235.091 98.9625L234.353 98.8477L233.664 98.7405L233.978 98.34L234.319 98.0933L234.773 97.7645L234.336 97.1721C234.336 97.1721 233.732 97.3279 233.51 97.2934C233.289 97.259 232.327 97.2843 232.327 97.2843L231.993 96.8329L231.122 96.5977L230.064 96.4331L229.122 96.4866L228.611 96.8565L227.808 97.1562L228.126 98.0296L228.389 98.7697L228.723 99.221L228.518 99.8883L228.092 99.5474L227.759 99.7453L227.221 100.286L227.156 100.7L226.295 100.891L226.378 100.355L226.492 99.6233L226.283 99.3412L226.026 99.3761L225.59 98.9339L225.655 98.5194L225.136 98.9381L225.041 99.5476L225.569 99.8795L225.467 100.538L224.956 100.908L224.539 100.344L224.255 99.5753L224.339 99.0389L223.884 98.7186L223.53 98.2391L222.848 98.7324L222.223 99.1845L221.559 99.0812L220.99 99.4923L220.375 99.3966L220.134 98.5103L220.595 97.658L220.75 96.6584L221.525 95.73L221.703 94.5842L222.288 93.2519L222.455 92.1792L222.606 91.2039L222.256 90.7L222.472 89.3103L222.878 88.3246L223.105 86.8618L223.275 85.7647L223.893 85.0367L223.414 84.3879L223.189 83.404L223.586 82.1425L224.297 81.6287L223.833 80.2332L224.164 78.9114L225.07 77.6288L225.865 77.0533L226.7 76.0595L227.382 75.5663L228.462 74.7852L229.397 74.9306L230.155 74.5989L229.946 74.3169L229.71 73.7307L230.27 73.3684L230.763 73.445L231.412 72.9966L232.151 72.4622L232.016 71.5424L232.829 71.9933L233.458 71.5167L233.083 71.009L233.007 70.1982L233.299 69.6193L233.924 69.1671L234.615 69.0998L235.287 68.5052L236.528 68.1486L236.585 67.7829L237.391 67.7835L238.175 67.6057L238.425 67.9442L237.702 68.0565L237.446 68.5661L237.363 69.1024C237.363 69.1024 237.874 69.3817 237.675 69.5255C237.476 69.6694 238.471 69.5992 238.471 69.5992L238.887 68.865L239.016 68.0361L239.853 67.8416L240.071 67.2512L239.995 65.7912L241.257 65.7875L241.431 64.666L242.126 64.5743L242.297 63.8017L241.681 63.7061L241.283 63.9938L240.747 64.36L240.194 64.3489L239.715 63.7002L239.829 62.9688L239.246 62.1789L239.274 60.5354L239.464 59.3164L238.903 58.0557L239.205 56.9289L238.542 56.3265L238.769 54.5391L239.296 54.0716L239.873 52.7881L239.976 52.1298L241.084 52.302L241.555 51.3766L241.375 50.4247L242.37 51.653L242.583 52.3854L242.938 52.8649L243.458 53.5701L243.617 52.5461L244.299 53.0266L244.494 53.8809L244.934 53.0003L245.098 51.4529L244.832 50.4126L245.032 49.1205L244.595 48.5281L245.072 48.053L245.434 48.1591L245.591 47.6342L244.779 47.508L244.196 46.7182L243.592 45.9002L243.167 45.3848L243.516 44.7648L243.649 43.9115L244.635 43.5654L245.374 43.031L245.603 43.3413L244.701 43.9503L244.557 44.8767L245.336 45.547L245.788 46.3665L246.184 46.9024L246.671 47.1778L247.212 47.262L247.595 48.3702L248.011 48.9343L247.905 49.617L247.818 50.1777L247.371 51.107L247.295 51.9192L247.723 52.4102L247.981 53.9983L248.24 55.0874L248.412 56.4125L248.524 57.8032L249.152 58.9497L249.41 60.5378L249.406 61.8605L249.635 63.1446L249.294 63.3913L248.868 63.6996L249.156 64.4435L248.766 65.007L248.368 65.2948L248.315 65.6361L249.051 65.9254L249.589 67.0078L249.568 67.9534L250.047 68.6021L249.915 69.4554L250.594 70.435L251.594 71.789L251.984 72.8484L252.978 73.752L254.041 74.5414L255.73 75.3533L256.516 75.6502L257.179 76.2526L257.527 76.931L258.953 77.9767L260.22 78.7479L261.545 79.6281L262.17 80.4743L262.983 80.6006L263.483 81.2776L264.185 81.7863L265.367 81.97L265.761 82.6804Z" fill="#0A69F9"/>
<path d="M224.333 95.6671L223.928 96.0037L223.852 96.4913L223.769 97.0276L224.401 96.8513L224.672 97.218L225.094 96.9341L225.352 96.25L225.045 95.628L224.333 95.6671Z" fill="#0A69F9"/>
<path d="M252.244 114.488L251.479 113.895L250.939 114.285L250.155 114.138L249.937 113.43L249.322 113.335L248.863 112.714L247.952 112.572L247.398 112.087L246.794 111.269L246.398 110.733C246.398 110.733 246.402 109.735 246.544 109.632C246.657 109.55 246.19 108.828 246.19 108.828L245.718 107.806L245.783 107.391L246.014 106.878L245.98 106.123L246.521 106.208L247.22 106.091L247.618 105.804L247.838 105.363L246.913 104.82L246.419 104.269L245.616 103.595L244.666 102.898L243.98 102.117L242.876 101.271L242.111 100.353L241.229 99.8666L240.591 99.5926L239.699 98.3553L239.24 97.7348L239.044 96.7304L238.72 96.0558L238.227 95.9793L237.341 95.1923L237.207 94.5971L236.347 94.2887L235.931 93.7245L235.771 93.1255L235.338 92.8334L234.465 92.448L234.381 92.9844L234.508 93.6283L234.815 93.6011L235.467 93.952L235.862 94.488L235.821 94.7562L236.216 95.2921L235.959 95.9762L235.184 95.6061L235.101 96.1425L234.745 96.8112L235.68 97.2812L236.032 98.2598L236.799 99.3279L236.716 99.8643L237.396 101.168L238.024 101.341L239.011 101.969L240.27 102.789L240.638 103.67L241.262 104.841L242.012 105.856L242.908 107.069L243.932 109.076L244.351 110.44L245.031 110.77L245.705 111.299L246.316 112.068L246.712 113.254L247.085 113.936L247.647 114.697L248.251 115.515L248.149 116.174L249.056 117.313L249.577 118.019L249.957 118.652L250.596 118.277L250.321 117.285L249.842 116.637L249.78 115.903L250.189 115.217L251.1 115.359L251.583 115.009C251.583 115.009 252.471 115.622 252.643 115.649C252.815 115.676 252.708 115.234 252.708 115.234L252.244 114.488Z" fill="#0A69F9"/>
<path d="M261.937 117.343L261.901 118.061L262.181 118.205L262.268 117.644L262.533 117.236L262.632 116.602L261.927 116.592L261.937 117.343Z" fill="#0A69F9"/>
<path d="M264.251 117.702L264.68 118.019L264.76 117.507L264.3 117.385L264.251 117.702Z" fill="#0A69F9"/>
<path d="M264.375 111.704L263.811 111.442L263.495 112.342L263.682 112.595L263.379 113.247L263.286 114.332L263.678 114.567L263.913 114.03L263.866 112.874L264.32 112.545L264.375 111.704Z" fill="#0A69F9"/>
<path d="M264.87 109.984L264.923 110.616L265.259 110.244L265.069 109.84L264.87 109.984Z" fill="#0A69F9"/>
<path d="M266.806 105.965L266.781 105.312L266.217 105.698L265.999 106.289L266.158 106.888L265.846 107.763L266.27 107.954L266.607 107.407L266.601 106.632L266.806 105.965Z" fill="#0A69F9"/>
<path d="M255.01 51.5952L254.362 51.2198L253.906 51.3986L253.785 52.1788L253.601 52.8743L253.978 53.2076L254.22 53.5948L254.146 54.2325L254.703 54.5438L254.654 53.8869L254.484 53.3611L254.855 52.5948L255.01 51.5952Z" fill="#0A69F9"/>
<path d="M267.651 58.0296L268.488 58.1597L269.109 57.7319L268.454 57.4053L267.748 57.5702L267.145 57.2269L266.623 57.3454L266.789 57.8957L267.651 58.0296Z" fill="#0A69F9"/>
<path d="M265.744 84.5756L265.867 83.9455L265.579 83.5262L265.259 84.1257L264.861 84.4134L265.194 84.8648L265.344 85.3624L265.196 85.9887L265.022 86.7856L265.334 87.2087L265.787 87.0543L265.92 86.201L266.346 85.8927L266.16 85.1397L265.744 84.5756Z" fill="#0A69F9"/>
<path d="M266.783 89.731L266.252 89.249L266.169 89.7854L266.487 90.0096L266.783 89.731Z" fill="#0A69F9"/>
<path d="M267.749 100.868L267.809 100.477L267.881 100.014L267.505 100.006L267.387 100.761L267.289 101.395L267.806 101.476L267.749 100.868Z" fill="#0A69F9"/>
<path d="M270.544 56.1324L270.917 55.8408L270.458 55.8694L269.941 56.1137L270.15 56.3958L270.544 56.1324Z" fill="#0A69F9"/>
<path d="M227.802 8.78808L228.105 9.43444L228.372 10.4747L229.018 10.6999L229.526 10.3543L229.94 9.79458L229.656 9.35092L230.319 8.65494L230.353 7.78631L230.509 6.78672L230.032 6.28806L229.731 6.11641L229.39 6.36306L228.725 6.58433L228.128 7.01596L228.045 7.87693L227.789 8.06191L227.802 8.78808Z" fill="#0A69F9"/>
<path d="M20.3083 36.1126L21.7931 35.6442L22.1548 35.1012L22.1814 34.2813L21.8709 34.0083L21.6304 33.4466L21.799 32.8486L21.9089 32.1415L21.4393 31.5941L21.2935 31.3967L20.9564 31.6189L21.2272 31.9856L21.0321 32.4297L20.4564 32.2404L20.4583 31.7413L20.108 31.562L20.1819 30.9242L19.7823 30.4127L19.3051 30.2386L19.0438 30.6225L18.4548 30.6808L17.8374 30.435L18.6193 33.3531L20.3083 36.1126Z" fill="#0A69F9"/>
<path d="M192.016 33.9882L191.544 33.9399L191.179 34.1827L191.311 34.9523L191.686 35.4601L192.137 34.831L192.224 34.2702L192.016 33.9882Z" fill="#0A69F9"/>
<path d="M187.046 36.7612L186.773 36.8936L187.161 37.1537L187.614 37.6485L187.618 37.6241L187.614 37.6485L187.885 37.366L187.713 37.0146L187.046 36.7612Z" fill="#0A69F9"/>
<path d="M9.59393 80.0667L10.2643 80.2957L9.70571 79.5098L9.67354 79.2301L9.58077 79.0159L9.48041 78.8505L8.7608 78.6138L7.99197 78.0448L7.56596 77.0547L7.99399 76.5719L8.28759 75.8186L8.29902 75.0962L8.2157 74.9834L8.02066 74.7783L7.99037 74.6487L8.28397 73.8953L7.92988 73.4158L8.02841 72.7819L7.5474 72.6323L7.42428 72.9377L7.03417 72.8521L6.50581 72.8449L6.25586 72.5064L6.06461 72.2769L5.80329 72.0116L5.62908 71.8347L5.45107 71.6822L4.69168 71.5392L4.24096 71.519L3.90579 71.2422L3.55167 71.0873L3.35284 70.9066L2.98732 71.1494L2.97213 71.5715L3.26944 71.7675L3.61977 71.9468L3.72577 72.5626L3.703 73.0335L3.52306 73.38L3.52112 73.8791L3.273 74.3399L2.82416 74.4699L2.74273 74.5072L2.71811 74.5034L2.40183 74.7539L2.00035 74.7414L1.97573 74.7376L1.63292 75.1587L1.68589 75.7912L1.76539 76.253L2.2956 76.7349L2.97168 76.7651L3.37128 76.6275L4.00381 76.4511L4.37877 76.6342L4.86732 77.0597L4.99418 77.3791L5.11158 77.5971L5.34449 77.883L5.92964 78.1737L6.59055 78.3014L7.33291 78.3918L7.5298 79.0716L7.63392 79.5373L8.4122 80.2076L9.22271 80.5084L9.59393 80.0667Z" fill="#0A69F9"/>
</g>
<defs>
<clipPath id="clip0_15_1432">
<rect width="277" height="148" fill="white"/>
</clipPath>
</defs>
</svg>
