<svg width="202" height="106" viewBox="0 0 202 106" fill="none" xmlns="http://www.w3.org/2000/svg">
<g opacity="0.5">
<path d="M32.9652 106C25.7335 106 19.2062 104.484 13.3833 101.453C7.5604 98.5165 3.09929 94.4432 0 89.2332L12.5381 75.1662C15.2617 78.5764 18.4079 81.2761 21.9768 83.2654C25.6396 85.16 29.3494 86.1072 33.1061 86.1072C36.0176 86.1072 38.5533 85.5389 40.7135 84.4021C42.8736 83.1707 44.5641 81.513 45.785 79.429C47.006 77.3449 47.6164 74.882 47.6164 72.0402C47.6164 69.3878 47.0529 67.0197 45.9259 64.9357C44.7989 62.8517 43.2492 61.2886 41.277 60.2466C39.3047 59.1099 37.0037 58.5415 34.374 58.5415C31.8382 58.5415 29.4433 59.1099 27.1893 60.2466C25.0292 61.3834 23.3386 62.9937 22.1177 65.0777H2.53579L14.2286 3.69436H63.9582V24.4397H30.5703L27.7528 41.6327C28.3163 40.9696 29.3963 40.4012 30.9929 39.9276C32.6835 39.3592 34.8905 39.0751 37.6142 39.0751C44.0945 39.0751 49.8235 40.4486 54.8012 43.1957C59.7788 45.9428 63.6764 49.7793 66.4939 54.7051C69.3115 59.6309 70.7203 65.2672 70.7203 71.6139C70.7203 78.4343 69.0767 84.4021 65.7896 89.5174C62.5963 94.7274 58.1822 98.7533 52.5471 101.595C46.912 104.532 40.3847 106 32.9652 106Z" fill="#0A69F9"/>
<path d="M148.43 43.1957C148.43 51.5317 146.834 58.9678 143.641 65.504C140.447 71.9455 136.08 77.0134 130.539 80.7078C124.998 84.4021 118.705 86.2493 111.662 86.2493C104.712 86.2493 98.4191 84.4021 92.784 80.7078C87.2429 77.0134 82.8757 71.9455 79.6824 65.504C76.4892 58.9678 74.8926 51.5317 74.8926 43.1957C74.8926 34.8597 76.4892 27.4709 79.6824 21.0295C82.8757 14.4933 87.2429 9.37801 92.784 5.68364C98.4191 1.89454 104.712 0 111.662 0C118.705 0 124.998 1.89454 130.539 5.68364C136.08 9.37801 140.447 14.4933 143.641 21.0295C146.834 27.4709 148.43 34.8597 148.43 43.1957ZM125.749 43.1957C125.749 38.7435 125.139 34.8597 123.918 31.5442C122.697 28.2288 121.006 25.6238 118.846 23.7292C116.78 21.8347 114.385 20.8874 111.662 20.8874C108.844 20.8874 106.355 21.8347 104.195 23.7292C102.035 25.6238 100.344 28.2288 99.1235 31.5442C97.9965 34.8597 97.4329 38.7435 97.4329 43.1957C97.4329 47.6479 97.9965 51.5317 99.1235 54.8472C100.344 58.1626 102.035 60.7676 104.195 62.6622C106.355 64.462 108.844 65.3619 111.662 65.3619C114.385 65.3619 116.78 64.462 118.846 62.6622C121.006 60.7676 122.697 58.1626 123.918 54.8472C125.139 51.5317 125.749 47.6479 125.749 43.1957Z" fill="#0A69F9"/>
<path d="M202 25.2922V43.4799H188.617V58.2574H168.33V43.4799H155.088V25.2922H168.33V10.5147H188.617V25.2922H202Z" fill="#0A69F9"/>
</g>
</svg>
